<svg xmlns="http://www.w3.org/2000/svg" version="1.1" xmlns:xlink="http://www.w3.org/1999/xlink" xmlns:svgjs="http://svgjs.dev/svgjs" width="1500" height="935" viewBox="0 0 1500 935"><g transform="matrix(1,0,0,1,-0.9090909090909918,0.3785425101214628)"><svg viewBox="0 0 396 247" data-background-color="#ffffff" preserveAspectRatio="xMidYMid meet" height="935" width="1500" xmlns="http://www.w3.org/2000/svg" xmlns:xlink="http://www.w3.org/1999/xlink"><g id="tight-bounds" transform="matrix(1,0,0,1,0.2400000000000091,-0.09999999999999432)"><svg viewBox="0 0 395.52 247.2" height="247.2" width="395.52"><g><svg></svg></g><g><svg viewBox="0 0 395.52 247.2" height="247.2" width="395.52"><mask id="504d3ea1-5420-4c8e-81e1-5f71296608cc"><rect width="395.52" height="247.2" fill="white"></rect><g transform="matrix(1,0,0,1,0,87.61970268471268)" id="clone"><svg viewBox="0 0 395.52 71.96059463057465" height="71.96059463057465" width="395.52"><g><svg viewBox="0 0 395.52 71.96059463057465" height="71.96059463057465" width="395.52"><g><svg viewBox="0 0 395.52 71.96059463057465" height="71.96059463057465" width="395.52"><g><svg viewBox="0 0 395.52 71.96059463057465" height="71.96059463057465" width="395.52"><g id="SvgjsG1121"><svg viewBox="0 0 395.52 71.96059463057465" height="71.96059463057465" width="395.52" id="SvgjsSvg1120"><g><svg viewBox="0 0 395.52 71.96059463057465" height="71.96059463057465" width="395.52"><g transform="matrix(1,0,0,1,0,0)"><svg width="395.52" viewBox="-0.9500000000000002 -38.5 226.32999999999998 42" height="71.96059463057465" data-palette-color="#ffffff"><path d="M2.05 0L2.05-35 8.95-35 14.3-14.05 14.4-14.05 14.4-35 19.3-35 19.3 0 13.65 0 7.05-25.55 6.95-25.55 6.95 0 2.05 0ZM23.4 0L23.4-35 38.4-35 38.4-30 28.9-30 28.9-20.75 36.45-20.75 36.45-15.75 28.9-15.75 28.9-5 38.4-5 38.4 0 23.4 0ZM45.85 0L45.85-30 40.1-30 40.1-35 57.1-35 57.1-30 51.35-30 51.35 0 45.85 0ZM62.19 0L58.64-35 63.94-35 66.39-8.1 66.49-8.1 69.09-35 75.09-35 77.69-8.1 77.79-8.1 80.24-35 84.99-35 81.44 0 74.59 0 72.09-23.6 71.99-23.6 69.49 0 62.19 0ZM95.74 0.5Q91.69 0.5 89.54-1.8 87.39-4.1 87.39-8.3L87.39-8.3 87.39-26.7Q87.39-30.9 89.54-33.2 91.69-35.5 95.74-35.5L95.74-35.5Q99.79-35.5 101.94-33.2 104.09-30.9 104.09-26.7L104.09-26.7 104.09-8.3Q104.09-4.1 101.94-1.8 99.79 0.5 95.74 0.5L95.74 0.5ZM95.74-4.5Q98.59-4.5 98.59-7.95L98.59-7.95 98.59-27.05Q98.59-30.5 95.74-30.5L95.74-30.5Q92.89-30.5 92.89-27.05L92.89-27.05 92.89-7.95Q92.89-4.5 95.74-4.5L95.74-4.5ZM107.79 0L107.79-35 115.94-35Q120.19-35 122.14-33.02 124.09-31.05 124.09-26.95L124.09-26.95 124.09-24.8Q124.09-19.35 120.49-17.9L120.49-17.9 120.49-17.8Q122.49-17.2 123.31-15.35 124.14-13.5 124.14-10.4L124.14-10.4 124.14-4.25Q124.14-2.75 124.24-1.83 124.34-0.9 124.74 0L124.74 0 119.14 0Q118.84-0.85 118.74-1.6 118.64-2.35 118.64-4.3L118.64-4.3 118.64-10.7Q118.64-13.1 117.86-14.05 117.09-15 115.19-15L115.19-15 113.29-15 113.29 0 107.79 0ZM113.29-20L115.29-20Q116.94-20 117.76-20.85 118.59-21.7 118.59-23.7L118.59-23.7 118.59-26.4Q118.59-28.3 117.91-29.15 117.24-30 115.79-30L115.79-30 113.29-30 113.29-20ZM127.94 0L127.94-35 133.44-35 133.44-20.25 140.44-35 145.94-35 139.39-22.15 146.04 0 140.29 0 135.64-15.6 133.44-11.15 133.44 0 127.94 0ZM148.63 0L148.63-35 155.53-35 160.88-14.05 160.98-14.05 160.98-35 165.88-35 165.88 0 160.23 0 153.63-25.55 153.53-25.55 153.53 0 148.63 0ZM169.98 0L169.98-35 184.98-35 184.98-30 175.48-30 175.48-20.75 183.03-20.75 183.03-15.75 175.48-15.75 175.48-5 184.98-5 184.98 0 169.98 0ZM195.38 0.5Q191.38 0.5 189.33-1.78 187.28-4.05 187.28-8.3L187.28-8.3 187.28-10.3 192.48-10.3 192.48-7.9Q192.48-4.5 195.33-4.5L195.33-4.5Q196.73-4.5 197.45-5.33 198.18-6.15 198.18-8L198.18-8Q198.18-10.2 197.18-11.88 196.18-13.55 193.48-15.9L193.48-15.9Q190.08-18.9 188.73-21.33 187.38-23.75 187.38-26.8L187.38-26.8Q187.38-30.95 189.48-33.23 191.58-35.5 195.58-35.5L195.58-35.5Q199.53-35.5 201.55-33.23 203.58-30.95 203.58-26.7L203.58-26.7 203.58-25.25 198.38-25.25 198.38-27.05Q198.38-28.85 197.68-29.68 196.98-30.5 195.63-30.5L195.63-30.5Q192.88-30.5 192.88-27.15L192.88-27.15Q192.88-25.25 193.9-23.6 194.93-21.95 197.63-19.6L197.63-19.6Q201.08-16.6 202.38-14.15 203.68-11.7 203.68-8.4L203.68-8.4Q203.68-4.1 201.55-1.8 199.43 0.5 195.38 0.5L195.38 0.5ZM211.13 0L211.13-30 205.38-30 205.38-35 222.38-35 222.38-30 216.63-30 216.63 0 211.13 0Z" opacity="1" transform="matrix(1,0,0,1,0,0)" fill="black" class="wordmark-text-0" id="SvgjsPath1119" stroke-width="5" stroke="black" stroke-linejoin="round"></path></svg></g></svg></g></svg></g></svg></g></svg></g></svg></g></svg></g></mask><g mask="url(#504d3ea1-5420-4c8e-81e1-5f71296608cc)"><g><path d="M136.843 247.2v-247.2h48.734l37.786 147.967h0.706v-147.967h34.608v247.2h-39.905l-46.615-180.456h-0.706v180.456z" fill="#b10dc9" fill-rule="nonzero" stroke="none" stroke-width="1" stroke-linecap="butt" stroke-linejoin="miter" stroke-miterlimit="10" stroke-dasharray="" stroke-dashoffset="0" font-family="none" font-weight="none" font-size="none" text-anchor="none" style="mix-blend-mode: normal" data-fill-palette-color="tertiary"></path></g></g><g transform="matrix(1,0,0,1,0,87.61970268471268)"><svg viewBox="0 0 395.52 71.96059463057465" height="71.96059463057465" width="395.52"><g><svg viewBox="0 0 395.52 71.96059463057465" height="71.96059463057465" width="395.52"><g><svg viewBox="0 0 395.52 71.96059463057465" height="71.96059463057465" width="395.52"><g><svg viewBox="0 0 395.52 71.96059463057465" height="71.96059463057465" width="395.52"><g id="textblocktransform"><svg viewBox="0 0 395.52 71.96059463057465" height="71.96059463057465" width="395.52" id="textblock"><g><svg viewBox="0 0 395.52 71.96059463057465" height="71.96059463057465" width="395.52"><g transform="matrix(1,0,0,1,0,0)"><svg width="395.52" viewBox="-0.9500000000000002 -38.5 226.32999999999998 42" height="71.96059463057465" data-palette-color="#ffffff"><path d="M2.05 0L2.05-35 8.95-35 14.3-14.05 14.4-14.05 14.4-35 19.3-35 19.3 0 13.65 0 7.05-25.55 6.95-25.55 6.95 0 2.05 0ZM23.4 0L23.4-35 38.4-35 38.4-30 28.9-30 28.9-20.75 36.45-20.75 36.45-15.75 28.9-15.75 28.9-5 38.4-5 38.4 0 23.4 0ZM45.85 0L45.85-30 40.1-30 40.1-35 57.1-35 57.1-30 51.35-30 51.35 0 45.85 0ZM62.19 0L58.64-35 63.94-35 66.39-8.1 66.49-8.1 69.09-35 75.09-35 77.69-8.1 77.79-8.1 80.24-35 84.99-35 81.44 0 74.59 0 72.09-23.6 71.99-23.6 69.49 0 62.19 0ZM95.74 0.5Q91.69 0.5 89.54-1.8 87.39-4.1 87.39-8.3L87.39-8.3 87.39-26.7Q87.39-30.9 89.54-33.2 91.69-35.5 95.74-35.5L95.74-35.5Q99.79-35.5 101.94-33.2 104.09-30.9 104.09-26.7L104.09-26.7 104.09-8.3Q104.09-4.1 101.94-1.8 99.79 0.5 95.74 0.5L95.74 0.5ZM95.74-4.5Q98.59-4.5 98.59-7.95L98.59-7.95 98.59-27.05Q98.59-30.5 95.74-30.5L95.74-30.5Q92.89-30.5 92.89-27.05L92.89-27.05 92.89-7.95Q92.89-4.5 95.74-4.5L95.74-4.5ZM107.79 0L107.79-35 115.94-35Q120.19-35 122.14-33.02 124.09-31.05 124.09-26.95L124.09-26.95 124.09-24.8Q124.09-19.35 120.49-17.9L120.49-17.9 120.49-17.8Q122.49-17.2 123.31-15.35 124.14-13.5 124.14-10.4L124.14-10.4 124.14-4.25Q124.14-2.75 124.24-1.83 124.34-0.9 124.74 0L124.74 0 119.14 0Q118.84-0.85 118.74-1.6 118.64-2.35 118.64-4.3L118.64-4.3 118.64-10.7Q118.64-13.1 117.86-14.05 117.09-15 115.19-15L115.19-15 113.29-15 113.29 0 107.79 0ZM113.29-20L115.29-20Q116.94-20 117.76-20.85 118.59-21.7 118.59-23.7L118.59-23.7 118.59-26.4Q118.59-28.3 117.91-29.15 117.24-30 115.79-30L115.79-30 113.29-30 113.29-20ZM127.94 0L127.94-35 133.44-35 133.44-20.25 140.44-35 145.94-35 139.39-22.15 146.04 0 140.29 0 135.64-15.6 133.44-11.15 133.44 0 127.94 0ZM148.63 0L148.63-35 155.53-35 160.88-14.05 160.98-14.05 160.98-35 165.88-35 165.88 0 160.23 0 153.63-25.55 153.53-25.55 153.53 0 148.63 0ZM169.98 0L169.98-35 184.98-35 184.98-30 175.48-30 175.48-20.75 183.03-20.75 183.03-15.75 175.48-15.75 175.48-5 184.98-5 184.98 0 169.98 0ZM195.38 0.5Q191.38 0.5 189.33-1.78 187.28-4.05 187.28-8.3L187.28-8.3 187.28-10.3 192.48-10.3 192.48-7.9Q192.48-4.5 195.33-4.5L195.33-4.5Q196.73-4.5 197.45-5.33 198.18-6.15 198.18-8L198.18-8Q198.18-10.2 197.18-11.88 196.18-13.55 193.48-15.9L193.48-15.9Q190.08-18.9 188.73-21.33 187.38-23.75 187.38-26.8L187.38-26.8Q187.38-30.95 189.48-33.23 191.58-35.5 195.58-35.5L195.58-35.5Q199.53-35.5 201.55-33.23 203.58-30.95 203.58-26.7L203.58-26.7 203.58-25.25 198.38-25.25 198.38-27.05Q198.38-28.85 197.68-29.68 196.98-30.5 195.63-30.5L195.63-30.5Q192.88-30.5 192.88-27.15L192.88-27.15Q192.88-25.25 193.9-23.6 194.93-21.95 197.63-19.6L197.63-19.6Q201.08-16.6 202.38-14.15 203.68-11.7 203.68-8.4L203.68-8.4Q203.68-4.1 201.55-1.8 199.43 0.5 195.38 0.5L195.38 0.5ZM211.13 0L211.13-30 205.38-30 205.38-35 222.38-35 222.38-30 216.63-30 216.63 0 211.13 0Z" opacity="1" transform="matrix(1,0,0,1,0,0)" fill="#ffffff" class="wordmark-text-0" data-fill-palette-color="primary" id="text-0"></path></svg></g></svg></g></svg></g></svg></g></svg></g></svg></g></svg></g></svg></g><defs></defs></svg><rect width="395.52" height="247.2" fill="none" stroke="none" visibility="hidden"></rect></g></svg></g></svg>