<?xml version="1.0" encoding="utf-8"?>
<!-- Generator: Adobe Illustrator 27.5.0, SVG Export Plug-In . SVG Version: 6.00 Build 0)  -->
<svg version="1.1" xmlns="http://www.w3.org/2000/svg" xmlns:xlink="http://www.w3.org/1999/xlink" x="0px" y="0px"
	 viewBox="0 0 500 500" style="enable-background:new 0 0 500 500;" xml:space="preserve">
<g id="BACKGROUND">
	<rect style="fill:#00000;" width="500" height="500"/>
</g>
<g id="OBJECTS">
	<g>
		<g>
			<path style="fill:#FFDDEB;" d="M37,335.448h394.008c0.305-12.553-5.401-24.322-11.492-36.395
				c-8.595-17.038-14.37-32.783-12.58-52.3c1.707-18.615,9.504-34.054,15.955-51.204c12.094-32.154-20.223-46.95-47.469-42.024
				c-11.733,2.121-25.023,4.882-36.209-0.767c-17.763-8.971-21.697-31.6-31.912-47.038c-10.786-16.301-24.992-30.264-41.348-40.948
				c-31.204-20.383-70.402-27.47-105.234-12.039c-26.734,11.843-49.034,36.721-53.962,66.075
				c-4.158,24.765,5.323,49.61,1.186,74.369c-3.969,23.752-23.151,40.531-38.823,57.184c-19.492,20.712-35.321,47.712-33.137,77.062
				C36.187,330.183,36.534,332.854,37,335.448z"/>
			<path style="fill:#FFC0DC;" d="M86.873,305.389c9.639,11.117,20.47,21.182,32.201,30.059h332.334
				c2.351-12.639-0.085-26.479-6.628-37.683c-10.811-18.514-30.737-30.315-51.489-35.701c-17.075-4.432-36.154-5.552-49.43-17.168
				c-18.548-16.229-17.323-45.876-8.247-68.79c9.075-22.914,24.325-43.446,29.824-67.471c3.266-14.269,2.034-31.25-9.141-40.704
				c-12.41-10.499-31.252-7.256-46.296-1.098c-55.189,22.589-95.014,78.692-98.131,138.244c-0.477,9.12-0.179,18.385-2.442,27.233
				c-2.263,8.848-7.653,17.495-16.135,20.881c-12.826,5.121-27.196-3.474-36.1-14.031c-8.904-10.557-15.21-23.536-26.177-31.929
				c-18.018-13.79-46.907-10.087-60.864,7.802c-10.231,13.113-12.125,31.402-7.947,47.5
				C66.384,278.631,75.977,292.823,86.873,305.389z"/>
			<g>
				<g>
					
						<circle style="fill:none;stroke:#1C1C82;stroke-width:0.9692;stroke-miterlimit:10;stroke-dasharray:4.3251,4.3254;" cx="131.331" cy="94.711" r="24.788"/>
				</g>
				<g>
					
						<ellipse transform="matrix(0.9535 -0.3015 0.3015 0.9535 -52.3845 148.6288)" style="fill:none;stroke:#1C1C82;stroke-width:0.9692;stroke-miterlimit:10;stroke-dasharray:4.3251,4.3254;" cx="455.35" cy="244.035" rx="24.788" ry="24.788"/>
				</g>
				<g>
					
						<ellipse transform="matrix(0.2273 -0.9738 0.9738 0.2273 -215.2513 279.1193)" style="fill:none;stroke:#1C1C82;stroke-width:0.9692;stroke-miterlimit:10;stroke-dasharray:4.3251,4.3254;" cx="68.267" cy="275.204" rx="24.788" ry="24.788"/>
				</g>
			</g>
			<g>
				<g>
					<path style="fill:#F21E3D;" d="M438.988,125.306c1.103-1.783,1.102-4.071-1.009-5.485c-1.311-0.878-2.951-0.872-4.229-0.129
						c0.201-1.464-0.419-2.983-1.729-3.861c-2.891-1.937-5.976,0.501-6.369,3.492c-0.415,3.16,0.583,6.318,2.324,8.943l0.043,0.029
						c2.915,0.577,6.359,0.459,8.986-1.061C437.819,126.762,438.508,126.081,438.988,125.306z"/>
					<g>
						<g>
							<path style="fill:#F21E3D;" d="M425.246,104.984c0.165,1.193,0.391,2.364,0.659,3.539c0.204,0.895,0.217,1.921,1.088,2.39
								c0.249,0.134,0.536,0.054,0.69-0.181c0.543-0.828,0.052-1.763-0.194-2.646c-0.324-1.158-0.682-2.291-1.105-3.416
								C426.111,103.947,425.143,104.239,425.246,104.984L425.246,104.984z"/>
						</g>
					</g>
					<g>
						<g>
							<path style="fill:#F21E3D;" d="M439.911,105.036c-0.748,0.988-1.432,2.004-2.091,3.054c-0.488,0.777-1.289,1.581-0.818,2.506
								c0.078,0.153,0.267,0.254,0.435,0.25c1.026-0.024,1.363-1.141,1.805-1.925c0.608-1.079,1.176-2.162,1.687-3.29
								C441.247,104.932,440.369,104.432,439.911,105.036L439.911,105.036z"/>
						</g>
					</g>
					<g>
						<g>
							<path style="fill:#F21E3D;" d="M450.233,115.45c-1.193,0.165-2.364,0.391-3.539,0.658c-0.895,0.204-1.921,0.217-2.39,1.088
								c-0.134,0.249-0.054,0.536,0.181,0.689c0.828,0.543,1.763,0.053,2.646-0.194c1.158-0.324,2.291-0.681,3.416-1.104
								C451.271,116.316,450.978,115.347,450.233,115.45L450.233,115.45z"/>
						</g>
					</g>
					<g>
						<g>
							<path style="fill:#F21E3D;" d="M450.182,130.115c-0.988-0.748-2.004-1.432-3.054-2.091c-0.777-0.488-1.581-1.289-2.507-0.818
								c-0.153,0.078-0.254,0.267-0.25,0.435c0.024,1.026,1.141,1.363,1.925,1.805c1.079,0.608,2.162,1.176,3.29,1.687
								C450.286,131.451,450.786,130.573,450.182,130.115L450.182,130.115z"/>
						</g>
					</g>
					<g>
						<g>
							<path style="fill:#F21E3D;" d="M439.767,140.438c-0.165-1.194-0.391-2.364-0.659-3.539c-0.204-0.895-0.217-1.921-1.088-2.39
								c-0.249-0.134-0.536-0.054-0.689,0.181c-0.543,0.828-0.053,1.763,0.194,2.646c0.324,1.158,0.681,2.291,1.105,3.416
								C438.902,141.475,439.87,141.183,439.767,140.438L439.767,140.438z"/>
						</g>
					</g>
					<g>
						<g>
							<path style="fill:#F21E3D;" d="M425.102,140.386c0.748-0.988,1.432-2.004,2.091-3.054c0.488-0.777,1.288-1.581,0.818-2.506
								c-0.078-0.153-0.267-0.254-0.435-0.25c-1.026,0.024-1.363,1.141-1.805,1.925c-0.608,1.079-1.176,2.162-1.687,3.29
								C423.766,140.49,424.644,140.99,425.102,140.386L425.102,140.386z"/>
						</g>
					</g>
					<g>
						<g>
							<path style="fill:#F21E3D;" d="M414.78,129.972c1.193-0.165,2.364-0.391,3.539-0.658c0.895-0.204,1.921-0.217,2.39-1.089
								c0.134-0.249,0.054-0.536-0.181-0.689c-0.828-0.543-1.763-0.052-2.646,0.194c-1.158,0.324-2.291,0.681-3.416,1.105
								C413.743,129.106,414.035,130.075,414.78,129.972L414.78,129.972z"/>
						</g>
					</g>
					<g>
						<g>
							<path style="fill:#F21E3D;" d="M414.831,115.307c0.988,0.748,2.004,1.432,3.054,2.091c0.777,0.488,1.581,1.288,2.506,0.818
								c0.153-0.078,0.254-0.267,0.25-0.435c-0.024-1.026-1.141-1.363-1.925-1.805c-1.079-0.608-2.162-1.176-3.29-1.687
								C414.727,113.971,414.227,114.849,414.831,115.307L414.831,115.307z"/>
						</g>
					</g>
				</g>
				<g>
					<path style="fill:#F21E3D;" d="M207.488,174.048c-0.352-2.067-1.865-3.783-4.384-3.447c-1.564,0.208-2.791,1.297-3.258,2.699
						c-0.818-1.231-2.286-1.961-3.85-1.753c-3.449,0.459-4.152,4.328-2.469,6.831c1.778,2.645,4.615,4.355,7.657,5.172l0.051-0.007
						c2.568-1.495,5.074-3.86,6.04-6.738C207.574,175.913,207.641,174.947,207.488,174.048z"/>
					<g>
						<g>
							<path style="fill:#F21E3D;" d="M183.648,167.813c1.423,1.227,2.936,2.355,4.507,3.388c0.246,0.162,0.592,0.143,0.84,0
								c0.219-0.127,0.348-0.241,0.383-0.497c0.055-0.404-0.047-0.701-0.383-0.94c-1.482-1.054-3.028-2.024-4.633-2.877
								C183.798,166.586,183.119,167.356,183.648,167.813L183.648,167.813z"/>
						</g>
					</g>
					<g>
						<g>
							<path style="fill:#F21E3D;" d="M194.767,158.118c0.088,1.186,0.24,2.347,0.425,3.522c0.151,0.962,0.093,2.089,0.984,2.643
								c0.249,0.155,0.531,0.033,0.689-0.181c0.582-0.785,0.132-1.793-0.056-2.676c-0.249-1.171-0.533-2.32-0.884-3.464
								C195.739,157.351,194.716,157.428,194.767,158.118L194.767,158.118z"/>
						</g>
					</g>
					<g>
						<g>
							<path style="fill:#F21E3D;" d="M209.485,159.125c-1.227,1.423-2.355,2.936-3.388,4.507c-0.162,0.246-0.143,0.592,0,0.84
								c0.127,0.219,0.241,0.348,0.497,0.383c0.404,0.055,0.701-0.047,0.94-0.383c1.054-1.482,2.024-3.028,2.877-4.633
								C210.711,159.275,209.941,158.595,209.485,159.125L209.485,159.125z"/>
						</g>
					</g>
					<g>
						<g>
							<path style="fill:#F21E3D;" d="M219.179,170.244c-1.186,0.088-2.347,0.24-3.522,0.425c-0.961,0.151-2.089,0.093-2.643,0.984
								c-0.155,0.249-0.033,0.531,0.181,0.689c0.785,0.582,1.793,0.132,2.676-0.056c1.171-0.249,2.32-0.533,3.464-0.884
								C219.946,171.216,219.869,170.193,219.179,170.244L219.179,170.244z"/>
						</g>
					</g>
					<g>
						<g>
							<path style="fill:#F21E3D;" d="M218.172,184.962c-1.423-1.227-2.936-2.355-4.507-3.388c-0.246-0.162-0.593-0.143-0.84,0
								c-0.219,0.127-0.348,0.241-0.383,0.498c-0.055,0.404,0.047,0.701,0.383,0.94c1.482,1.054,3.028,2.024,4.633,2.877
								C218.022,186.188,218.702,185.418,218.172,184.962L218.172,184.962z"/>
						</g>
					</g>
					<g>
						<g>
							<path style="fill:#F21E3D;" d="M207.053,194.656c-0.087-1.186-0.24-2.347-0.425-3.522c-0.151-0.962-0.093-2.089-0.984-2.643
								c-0.249-0.155-0.531-0.033-0.689,0.181c-0.582,0.785-0.132,1.793,0.056,2.676c0.249,1.171,0.534,2.32,0.884,3.464
								C206.081,195.423,207.104,195.346,207.053,194.656L207.053,194.656z"/>
						</g>
					</g>
					<g>
						<g>
							<path style="fill:#F21E3D;" d="M192.336,193.649c1.227-1.423,2.355-2.936,3.388-4.507c0.162-0.246,0.143-0.593,0-0.84
								c-0.127-0.219-0.241-0.348-0.497-0.382c-0.404-0.055-0.701,0.047-0.94,0.382c-1.054,1.482-2.024,3.028-2.877,4.633
								C191.109,193.499,191.879,194.179,192.336,193.649L192.336,193.649z"/>
						</g>
					</g>
					<g>
						<g>
							<path style="fill:#F21E3D;" d="M182.641,182.53c1.186-0.088,2.347-0.24,3.522-0.425c0.962-0.151,2.089-0.093,2.643-0.985
								c0.155-0.249,0.033-0.531-0.181-0.689c-0.785-0.582-1.793-0.132-2.676,0.056c-1.171,0.249-2.32,0.533-3.464,0.884
								C181.874,181.558,181.952,182.581,182.641,182.53L182.641,182.53z"/>
						</g>
					</g>
				</g>
			</g>
			<g>
				<polygon style="fill:#FFFFFF;" points="331.315,116.146 331.315,126.639 320.565,116.146 				"/>
				<polygon style="fill:#FFFFFF;" points="228.49,118.198 336.88,118.198 336.949,88.193 228.49,88.193 				"/>
				<g>
					<rect x="246.885" y="111.045" style="fill:#CBCBCB;" width="31.767" height="2.848"/>
					<path style="fill:#979797;" d="M244.461,112.479c0,1.968-1.635,3.564-3.651,3.564c-2.017,0-3.652-1.596-3.652-3.564
						s1.635-3.564,3.652-3.564C242.826,108.915,244.461,110.51,244.461,112.479z"/>
					<rect x="237.934" y="103.961" style="fill:#CBCBCB;" width="40.718" height="2.847"/>
					<rect x="237.934" y="97.222" style="fill:#979797;" width="51.154" height="3.445"/>
					<rect x="290.481" y="97.222" style="fill:#3F7FFC;" width="25.519" height="3.445"/>
					<rect x="317.394" y="97.222" style="fill:#CBCBCB;" width="10.887" height="3.445"/>
					<rect x="237.934" y="93.111" style="fill:#CBCBCB;" width="23.647" height="2.847"/>
				</g>
			</g>
		</g>
		<g>
			<g>
				<path style="fill:#F21E3D;" d="M334.644,353.133l-0.057-77.264c-0.005-6.101-4.951-11.044-11.052-11.044h-87.511
					c-6.107,0-11.056,4.953-11.052,11.06l0.057,77.264c0.005,6.101,4.951,11.044,11.052,11.044h87.511
					C329.699,364.193,334.648,359.24,334.644,353.133z"/>
			</g>
			<path style="fill:#F2F3F3;" d="M306.238,309.915c-0.116-7.331-4.434-14.064-13.319-14.245
				c-5.516-0.112-10.335,2.999-12.695,7.597c-2.172-4.69-6.86-7.994-12.375-8.107c-12.166-0.248-16.651,12.75-12.164,22.296
				c4.741,10.087,13.635,17.505,23.714,21.947l0.182,0.004c9.671-3.801,19.59-10.644,24.455-20.075
				C305.545,316.405,306.289,313.103,306.238,309.915z"/>
		</g>
		<g>
			<path style="fill:#3F7FFC;" d="M203.826,283.731l-77.476,0.068c-9.734,0.009-17.618,7.906-17.609,17.64l0.042,47.658
				c0.008,9.734,7.906,17.618,17.64,17.609l77.476-0.068c9.734-0.009,17.618-7.906,17.609-17.64l-0.042-47.659
				C221.458,291.606,213.56,283.723,203.826,283.731z"/>
			<g>
				<path style="fill:#ECF2F4;" d="M163.16,343.958l21.865-0.066c0.175,0,0.343-0.032,0.505-0.098
					c0.782-0.321,2.448-1.144,3.109-2.554c0.395-0.843,0.366-1.788-0.089-2.89l0,0c-0.245-0.594-0.04-1.277,0.49-1.639l0,0
					c0.283-0.198,2.786-2.064,1.376-4.951l0,0c-0.29-0.594-0.11-1.312,0.427-1.698l0,0c0.246-0.182,2.432-1.91,1.049-4.569l0,0
					c-0.321-0.618-0.123-1.378,0.459-1.761l0.001,0c0.014-0.01,2.075-1.421,1.738-3.324c-0.252-1.422-3.101-1.704-3.85-1.701
					l-14.571-0.079c-0.931-0.005-1.58-0.925-1.274-1.803l0,0c0.608-1.75,2.026-6.93,1.291-9.835
					c-0.737-2.909-1.974-5.559-2.496-6.607c-0.112-0.224-0.277-0.406-0.489-0.54c-0.213-0.134-0.495-0.275-0.826-0.357
					c-0.638-0.155-1.303-0.046-1.988,0.33c-0.426,0.233-0.678,0.698-0.676,1.184l0.019,6.416l-0.083,0.227
					c-0.093,0.255-2.341,6.338-7.941,13.475l-0.143,0.183l-2.659,1.69l-0.6,0.221l0.053,17.556c0.002,0.75,0.612,1.356,1.361,1.353
					l0,0c0.238-0.001,0.472,0.061,0.679,0.18l2.583,1.48C162.688,343.897,162.922,343.959,163.16,343.958z"/>
				<path style="fill:#ECF2F4;" d="M141.34,345.505l13.819-0.042l-0.033-10.784l-0.039-12.905l-13.819,0.042L141.34,345.505z"/>
			</g>
		</g>
		<g>
			<g>
				
					<path style="fill:#FF9B73;stroke:#EF714B;stroke-width:0.7524;stroke-linecap:round;stroke-linejoin:round;stroke-miterlimit:10;" d="
					M131.187,218.964c-2.312,6.447-7.889,21.63-9.996,24.847c1.081,3.724,4.392,5.639,7.622,4.902
					c2.327-4.298,8.207-18.186,11.107-24.891C139.059,223.437,133.36,219.903,131.187,218.964z"/>
				<path style="fill:#ED005F;" d="M128.475,221.098c1.432-3.438,3.003-6.819,4.709-10.13c1.19-2.31,2.382-4.758,3.812-6.925
					c1.239-1.878,3.093-2.87,5.326-2.669c1.858,0.167,4.126,0.943,5.292,2.489c0.758,1.005,0.988,2.33,0.949,3.597
					c-0.167,5.481-2.412,10.925-4.638,15.852c-0.639,1.415-1.109,3.396-2.914,3.49c-1.944,0.102-4.135-0.711-5.871-1.485
					C134.463,225.016,128.214,221.726,128.475,221.098z"/>
			</g>
			<g>
				<g>
					<path style="fill:#3F7FFC;" d="M62.187,348.711c0,0-4.674,3.78-13.193,9.284c-1.86,1.202-4.196,2.701-6.423,4.126
						c-3.086,1.976-2.751,3.084-2.174,4.607c0.228,0.602,0.551,1.133,0.816,1.564c1.761,2.861,11.451,1.769,14.561,0.566
						c3.111-1.204,12.82-6.821,12.865-8.818c0.025-1.116,0.798-6.178-1.208-9.991C65.845,347.035,62.187,348.711,62.187,348.711z"/>
					<path style="fill:#1D2956;" d="M68.638,360.04c-0.045,1.997-9.754,7.614-12.865,8.818c-3.111,1.204-12.8,2.296-14.561-0.566
						c-0.238-0.387-0.522-0.856-0.743-1.385c1.782,1.665,5.689,2.942,14.254,1.042c5.629-1.924,10.048-6.4,14.049-9.935
						C68.726,358.966,68.646,359.693,68.638,360.04z"/>
					<path style="opacity:0.1;" d="M49.963,369.401c1.744-1.156,8.722-5.193,10.932-10.648c1.682-4.151,1.317-4.171,1.317-4.171
						s1.981-0.504,4.406,3.352c0.341,0.72,1.131,0.926,2.108,0.836c-0.041,0.576-0.082,1.023-0.088,1.27
						c-0.045,1.997-9.754,7.614-12.865,8.818c-1.357,0.525-3.966,1.028-6.622,1.192C49.4,369.82,49.665,369.597,49.963,369.401z"/>
					<path style="fill:none;stroke:#FFFFFF;stroke-width:0.9536;stroke-linecap:round;stroke-miterlimit:10;" d="M59.721,359.323
						c-3.099-1.554-4.487-4.183-4.789-5.297"/>
					<path style="fill:none;stroke:#FFFFFF;stroke-width:0.9536;stroke-linecap:round;stroke-miterlimit:10;" d="M57.114,360.379
						c-2.789-1.728-3.896-3.808-4.362-5.02"/>
					<path style="fill:none;stroke:#FFFFFF;stroke-width:0.9536;stroke-linecap:round;stroke-miterlimit:10;" d="M54.669,361.147
						c-2.539-1.967-2.921-2.652-3.85-4.343"/>
					<path style="fill:none;stroke:#FFFFFF;stroke-width:0.9536;stroke-linecap:round;stroke-miterlimit:10;" d="M51.837,361.361
						c-1.635-1.292-2.264-2.412-2.707-3.115"/>
				</g>
				<g>
					<path style="fill:#1D2956;" d="M168.189,254.915l1.145,14.944c0.374,4.888-0.694,9.779-3.074,14.066l0,0
						c-2.484,4.475-6.279,8.081-10.875,10.334l-43.966,24.784l-44.222,40.222c0,0-5.893,0.338-10.272-8.535
						c0,0,36.716-38.76,40.3-41.752l41.293-36.968l0.038-11.71L168.189,254.915z"/>
					<path style="opacity:0.5;fill:#4D1E69;" d="M169.334,269.859l-0.488-6.37l-1.462,0.328c0,0-0.694,20.136-10.097,24.988
						c-9.404,4.852-53.887,28.871-53.887,28.871l-42.477,38.65c1.817,1.704,3.535,2.431,4.714,2.727
						c0.96,0.189,1.562,0.21,1.562,0.21l44.222-40.222l43.966-24.784c3.353-1.644,6.273-4.014,8.576-6.911
						c0.853-1.073,1.628-2.213,2.299-3.422c1.189-2.143,2.052-4.438,2.569-6.807c0.129-0.592,0.237-1.19,0.324-1.79
						c0.172-1.201,0.258-2.416,0.254-3.636C169.405,271.081,169.381,270.47,169.334,269.859z"/>
				</g>
			</g>
			<g>
				
					<polygon style="fill:#FF9B73;stroke:#EF714B;stroke-width:0.816;stroke-linecap:round;stroke-linejoin:round;stroke-miterlimit:10;" points="
					75.715,351.645 78.342,340.563 87.573,341.171 87.861,355.106 77.58,358.322 				"/>
				<g>
					<path style="fill:#3F7FFC;" d="M75.781,349.072c-0.747-0.2-1.473,0.402-1.446,1.174c0.033,0.938-0.005,2.191-0.334,3.139
						c-2.33,5.748-9.683,10.004-11.522,11.222c-1.839,1.218-2.879,3.183-2.117,4.26c0.761,1.077,1.348,5.298,20.547-3.409
						c6.226-2.823,11.129-5.696,11.129-5.696s-0.933-5.822-2.266-9.859c-2.562,0.109-3.561,2.142-5.883,3.538
						c-1.77,1.064-3.313,0.226-3.856-0.918C78.601,350.245,76.953,349.387,75.781,349.072z"/>
					<path style="fill:none;stroke:#FFFFFF;stroke-width:1.005;stroke-linecap:round;stroke-miterlimit:10;" d="M76.05,356.562
						c-1.412-0.25-3.144-1.357-3.144-1.357"/>
					<path style="fill:none;stroke:#FFFFFF;stroke-width:1.005;stroke-linecap:round;stroke-miterlimit:10;" d="M73.902,357.863
						c-1.274-0.235-2.088-0.789-2.199-0.87"/>
					<path style="fill:none;stroke:#FFFFFF;stroke-width:1.005;stroke-linecap:round;stroke-miterlimit:10;" d="M72.005,359.255
						c-1.305-0.281-1.595-0.7-1.595-0.7"/>
					<path style="fill:none;stroke:#FFFFFF;stroke-width:1.005;stroke-linecap:round;stroke-miterlimit:10;" d="M70.16,360.484
						c-0.754-0.218-1.247-0.615-1.247-0.615"/>
					<path style="fill:#1D2956;" d="M60.367,368.876c0.113,0.166,1.998,2.49,15.961-3.558c8.9-3.855,12.31-6.362,15.297-7.853
						c0.262,1.366,0.412,2.296,0.412,2.296s-4.904,2.872-11.129,5.696C61.762,374.14,61.126,369.968,60.367,368.876z"/>
				</g>
				<g>
					<path style="fill:#1D2956;" d="M134.197,261.512l-49.119,21.697c-2.641,1.191-4.562,3.562-5.178,6.393l-5.15,57.841
						c0,0,0.573,0.262,6.599,1.899c3.76,1.021,7.543,0.915,7.543,0.915l5.907-49.893l24.189-11.066l19.637-17.898l2.295-7.201
						L134.197,261.512z"/>
					<g style="opacity:0.5;">
						<path style="opacity:0.5;fill:#4D1E69;" d="M90.891,298.081l41.275-23.072l2.037,0.423l-15.214,13.867L94.8,300.364
							l-5.907,49.893c0,0-3.784,0.106-7.544-0.915L90.891,298.081z"/>
					</g>
				</g>
			</g>
			<g>
				<path style="fill:#F21E3D;" d="M158.375,194.091c-0.039-0.015-0.075-0.031-0.114-0.046c-1.317-0.521-2.864-0.273-4.24-0.056
					c-4.981,0.785-9.652,3.23-13.245,6.751c-1.822,1.786-3.243,3.813-4.495,6.025c-1.311,2.316-0.987,5.343-1.13,7.973
					c-0.791,14.5-1.396,29.297-6.217,43.139c-0.253,0.726-0.425,1.549-0.754,2.227c-0.606,1.249-1.589,2.377-2.251,3.616
					c5.805,4.982,13.686,7.126,21.335,6.956c3.317-0.074,6.613-0.552,9.878-1.142c4.488-0.811,8.988-1.852,13.071-3.884
					c-0.371-3.9-3.793-19.036-3.793-22.836c-0.019-2.275,0.669-4.688,1.081-6.908c0.998-5.37,2.081-10.723,3.138-16.082
					c0.529-2.68,0.919-6.011,1.397-8.701c0.392-2.209,1.639-5.773,0.62-7.87c-0.544-1.119-1.546-1.937-2.542-2.683
					c-2.59-1.939-4.972-3.162-7.863-4.616C160.999,195.325,159.674,194.599,158.375,194.091z"/>
				<g>
					<g>
						<path style="fill:#FF708A;" d="M141.175,228.247c-0.105,0.941,0.491,1.868,1.163,2.481c0.541,0.493,1.659,1.296,2.396,0.806
							c0.173-0.115,0.182-0.311,0.06-0.466c-0.196-0.247-0.482-0.323-0.764-0.445c-0.392-0.17-0.741-0.36-1.059-0.654
							c-0.572-0.53-0.838-1.211-1.187-1.887C141.62,227.766,141.208,227.955,141.175,228.247L141.175,228.247z"/>
					</g>
					<g>
						<path style="fill:#FF708A;" d="M146.904,214.612c1.098,0.134,2.067,0.491,2.892,1.251c0.357,0.329,0.658,0.708,0.878,1.142
							c0.218,0.429,0.256,0.798,0.582,1.154c0.24,0.263,0.685,0.119,0.777-0.205c0.324-1.144-0.918-2.501-1.758-3.133
							c-0.979-0.736-2.251-1.105-3.462-0.885C146.398,214.012,146.554,214.57,146.904,214.612L146.904,214.612z"/>
					</g>
					<g>
						<path style="fill:#FF708A;" d="M143.946,237.528c0.635,0.185,0.987,0.608,1.672,0.725c0.653,0.111,1.319,0.105,1.975,0.022
							c1.44-0.182,2.759-0.779,3.896-1.668c0.603-0.471-0.192-1.51-0.824-1.068c-1.052,0.736-2.134,1.282-3.399,1.551
							c-0.676,0.144-1.342,0.136-2.02,0.211c-0.315,0.035-1.001,0.195-1.273,0.131C143.91,237.416,143.884,237.51,143.946,237.528
							L143.946,237.528z"/>
					</g>
					<g>
						<path style="fill:#FF708A;" d="M153.456,235.046c0.679,0,0.68-1.055,0-1.055C152.777,233.991,152.776,235.046,153.456,235.046
							L153.456,235.046z"/>
					</g>
					<g>
						<path style="fill:#FF708A;" d="M135.19,236.107c-1.216,3.275,1.961,8.412,5.443,8.812c0.392,0.045,0.646-0.561,0.334-0.807
							c-1.377-1.088-2.845-1.751-3.903-3.248c-1.029-1.455-1.33-3.101-1.859-4.758C135.203,236.1,135.193,236.1,135.19,236.107
							L135.19,236.107z"/>
					</g>
					<g>
						<path style="fill:#FF708A;" d="M145.379,246.308c0.895,0,0.896-1.391,0-1.391
							C144.484,244.918,144.483,246.308,145.379,246.308L145.379,246.308z"/>
					</g>
					<g>
						<path style="fill:#FF708A;" d="M139.331,220.736c0.236-0.463,0.179-0.924,0.268-1.438c0.134-0.779,0.376-1.582,0.734-2.289
							c0.313-0.618,0.729-1.204,1.234-1.678c0.502-0.471,1.097-0.711,1.478-1.29c0.2-0.305-0.066-0.692-0.401-0.7
							c-1.506-0.036-2.831,1.91-3.38,3.132c-0.496,1.104-1.034,3.332,0.037,4.266C139.309,220.748,139.325,220.748,139.331,220.736
							L139.331,220.736z"/>
					</g>
					<g>
						<path style="fill:#FF708A;" d="M144.998,212.404c0.031,0.021,0.063,0.042,0.094,0.062c0.188,0.125,0.542,0.099,0.689-0.089
							c0.019-0.024,0.038-0.049,0.057-0.073c0.17-0.217,0.171-0.438,0-0.657c-0.019-0.024-0.038-0.049-0.057-0.073
							c-0.146-0.186-0.499-0.215-0.689-0.089c-0.031,0.021-0.063,0.042-0.094,0.062
							C144.679,211.759,144.679,212.192,144.998,212.404L144.998,212.404z"/>
					</g>
					<g>
						<path style="fill:#FF708A;" d="M154.904,208.178c0.565,1.598,1.808,2.902,2.417,4.521c0.642,1.708,0.572,3.418,0.92,5.168
							c0.116,0.586,0.97,0.522,1.122,0c0.881-3.004-1.08-8.8-4.219-9.929C155.008,207.888,154.856,208.042,154.904,208.178
							L154.904,208.178z"/>
					</g>
					<g>
						<path style="fill:#FF708A;" d="M157.391,221.63c0.003,0.021,0.006,0.042,0.008,0.063c0.114,0.85,1.729,0.089,0.792-0.609
							c-0.015-0.011-0.031-0.023-0.046-0.034C157.736,220.744,157.34,221.249,157.391,221.63L157.391,221.63z"/>
					</g>
					<path style="fill:#FF708A;" d="M149.494,222.977c-0.323,3.077-2.124,5.537-4.023,5.495s-3.175-2.572-2.852-5.649
						c0.323-3.077,2.124-5.537,4.022-5.494C148.54,217.371,149.817,219.9,149.494,222.977z"/>
				</g>
				<path style="fill:#ED005F;" d="M172.654,203.253c-0.065-0.134-0.156-0.251-0.233-0.377c-0.649-0.626-1.453-1.096-2.421-1.36
					c-1.8-0.491-4.196-0.554-5.828,0.489c-1.061,0.678-1.738,1.84-2.143,3.041c-1.753,5.196-1.545,11.081-1.175,16.475
					c0.106,1.549-0.144,3.569,1.515,4.287c0.019,0.008,0.04,0.014,0.059,0.022c-0.071,8.194-1.051,21.145-2.184,22.464
					c-2.504,2.914-19.376,14.229-22.264,16.157l-6.759,2.779c3.705,1.879,7.833,2.958,12.016,3.316
					c0.239-0.536,0.443-1.093,0.58-1.68c3.189-1.336,10.185-4.372,17.842-8.352c2.208-1.149,4.811-3.175,6.76-5.036
					c-0.985-5.152-2.002-10.593-2.002-12.664c-0.019-2.275,0.668-4.688,1.081-6.908c0.998-5.37,2.081-10.723,3.138-16.082
					c0.529-2.68,0.919-6.011,1.397-8.701C172.426,208.914,173.673,205.349,172.654,203.253z"/>
				<path style="fill:#ED005F;" d="M154.435,269.986c1.814-1.095,3.646-2.161,5.484-3.223c2.342-1.353,4.687-2.702,6.906-4.251
					c0.906-0.633,1.735-1.325,2.547-2.03c-0.441-2.371-0.987-5.157-1.49-7.843c-0.258,0.218-0.517,0.436-0.783,0.643
					c-2.701,2.102-5.618,3.895-8.449,5.811c-5.108,3.457-10.138,7.203-14.588,11.512c1.067,0.067,2.136,0.093,3.2,0.07
					C149.666,270.622,152.058,270.353,154.435,269.986z"/>
			</g>
			<g>
				<polygon style="fill:#BCBEC0;" points="154.542,276.936 128.616,291.112 92.129,273.955 118.458,261.361 				"/>
				<path style="fill:#414042;" d="M139.082,281.511l-11.645,6.339c-0.249,0.135-0.547,0.146-0.806,0.029l-28.526-12.913
					c-0.721-0.327-0.705-1.357,0.026-1.66l13.864-5.753c0.235-0.097,0.5-0.092,0.731,0.017l26.307,12.328
					C139.705,280.212,139.733,281.157,139.082,281.511z"/>
				<path style="fill:#E6E7E8;" d="M128.616,291.112l25.926-14.176l0,0c-0.047,1.172-0.706,2.233-1.735,2.796l-22.901,12.522
					c-0.858,0.469-1.889,0.498-2.772,0.078l-33.553-15.98c-0.919-0.438-1.49-1.38-1.452-2.397L128.616,291.112z"/>
				<polygon style="fill:#E6E7E8;" points="126.682,266.894 121.507,269.93 131.468,274.415 136.587,271.376 				"/>
				<path style="fill:#FFFFFF;" d="M128.616,291.112l0.506-0.277l-15.021-28.525c-0.317-0.625-0.887-1.085-1.566-1.262
					l-30.381-11.134c-0.517-0.131-1.065-0.03-1.501,0.277l-0.223,0.157L128.616,291.112z"/>
				<path style="fill:#C5C8C9;" d="M128.616,291.112l-14.945-27.668c-0.446-0.863-1.237-1.498-2.177-1.746L80.97,250.226
					c-0.504-0.133-0.929,0.39-0.697,0.856l11.856,22.874L128.616,291.112z"/>
			</g>
			<g>
				
					<path style="fill:#FF9B73;stroke:#EF714B;stroke-width:0.8151;stroke-linecap:round;stroke-linejoin:round;stroke-miterlimit:10;" d="
					M141.68,182.788c1.653-1.568,9.063-5.841,10.691-2.628c0.792,1.562,0.522,3.789,0.482,5.481
					c-0.05,2.102,0.487,4.234,1.611,5.986c0.763,1.19,1.804,2.17,2.988,2.881c-2.766,2.684-4.846,6.128-7.315,9.051
					c-0.633,0.75-1.637,2.423-2.58,2.751c-2.675,0.93-3.413-1.682-4.089-3.246c-0.393-0.909-0.734-1.798-1.174-2.624
					c0.099-0.167,0.197-0.335,0.275-0.518c0.648-1.524,0.472-2.908,0.15-4.475c-0.325-1.58-0.477-3.185-0.951-4.754
					c-0.261-0.863-0.57-1.711-0.924-2.537c-0.135-0.314-1.298-2.209-1.206-2.417C140.137,184.615,140.841,183.585,141.68,182.788z"
					/>
				<path style="opacity:0.5;fill:#FF9B73;" d="M150.702,179.447c0.627,0.11,1.057,0.4,1.306,0.898
					c0.184,0.364,0.293,0.779,0.371,1.213c-0.127,0.151-0.229,0.33-0.255,0.565c-0.79,7.19-4.078,13.84-9.108,18.899
					c-0.086-0.188-0.163-0.388-0.256-0.572c0.066-0.118,0.13-0.24,0.185-0.367c0.712-1.676,0.489-3.188,0.174-4.718
					c-0.113-0.554-0.206-1.11-0.299-1.667c-0.171-1.023-0.347-2.083-0.66-3.123c-0.27-0.887-0.586-1.755-0.941-2.58
					c-0.044-0.104-0.192-0.369-0.374-0.691c-0.227-0.404-0.683-1.21-0.788-1.501c0.483-1.054,1.139-1.993,1.905-2.719
					C143.322,181.792,148.16,179.007,150.702,179.447z"/>
			</g>
			<g>
				
					<path style="fill:#FF9B73;stroke:#EF714B;stroke-width:0.8454;stroke-linecap:round;stroke-linejoin:round;stroke-miterlimit:10;" d="
					M155.307,167.702c1.423,4.081,0.983,8.194-0.429,12.19c-1.547,4.379-3.321,8.484-6.443,12.008
					c-1.465,1.654-3.122,3.412-5.227,4.271c-1.95,0.795-4.075,0.419-5.796-0.734c-1.755-1.175-2.794-3.142-3.882-4.907
					c-1.231-1.997-2.656-4.161-3.487-6.355c-0.405-1.063-0.062-1.928-0.113-3.02c-0.042-0.9-0.48-1.724-0.82-2.558
					c-0.73-1.79-1.096-3.711-1.182-5.638c-0.075-1.671-0.163-3.65,0.05-5.292c0.485-3.74,3.721-7.256,6.967-8.881
					c3.748-1.876,8.344-1.888,12.165-0.163S153.927,163.744,155.307,167.702z"/>
				<g>
					<g>
						<path style="fill:#EF714B;" d="M135.271,187.048c0.442,0.302,1.004,0.4,1.331,0.456c0.192,0.033,0.376-0.096,0.408-0.289
							c0.034-0.192-0.094-0.379-0.289-0.41c-0.58-0.101-1.139-0.247-1.323-0.65c-0.154-0.34,0.009-0.796,0.166-1.236l0.043-0.12
							c0.499-1.424,0.589-3.016,0.255-4.486c-0.046-0.189-0.234-0.309-0.424-0.267c-0.19,0.045-0.309,0.234-0.266,0.425
							c0.305,1.34,0.223,2.793-0.233,4.091l-0.041,0.117c-0.186,0.52-0.418,1.166-0.146,1.769
							C134.87,186.709,135.057,186.902,135.271,187.048z"/>
					</g>
					<g>
						<path style="fill:#FFFFFF;" d="M138.136,189.726c-0.672,0.107-1.351,0.144-2.031,0.153c-0.106-0.182-0.188-0.374-0.199-0.562
							c-0.01-0.158,0.05-0.275,0.144-0.361c0.115-0.104,0.282-0.165,0.443-0.203c1.743-0.415,3.397-0.883,5.037-1.621
							c0.118-0.053,0.264-0.079,0.37-0.005c0.226,0.16,0.28,0.525,0.265,0.898C141.016,188.939,139.593,189.494,138.136,189.726z"/>
						<path style="fill:#39222F;" d="M138.136,189.726c1.458-0.232,2.881-0.787,4.029-1.701c-0.015,0.351-0.091,0.71-0.15,0.914
							c-0.642,2.234-3.656,2.938-5.401,1.539c-0.183-0.146-0.37-0.363-0.509-0.599C136.785,189.87,137.463,189.833,138.136,189.726z
							"/>
					</g>
					<g>
						<g>
							<path style="fill:#39222F;" d="M144.318,175.631c-0.979-0.163-1.867-0.486-2.881-0.432c-1.098,0.058-2.029,0.472-3.028,0.888
								c-0.246,0.103-0.441-0.203-0.25-0.387c1.472-1.422,4.709-1.735,6.281-0.309C144.532,175.473,144.437,175.651,144.318,175.631
								L144.318,175.631z"/>
						</g>
						<g>
							<path style="fill:#39222F;" d="M140.942,180.85c-1.492,0.109-1.664-2.209-0.17-2.318
								C142.264,178.423,142.437,180.741,140.942,180.85L140.942,180.85z"/>
						</g>
						<g>
							<path style="fill:#39222F;" d="M132.079,182.995c-1.483,0.192-1.784-2.113-0.298-2.305
								C133.264,180.498,133.564,182.803,132.079,182.995L132.079,182.995z"/>
						</g>
						<g>
							<path style="fill:#39222F;" d="M133.359,177.881c-0.811-0.099-1.631-0.187-2.437-0.009c-0.752,0.166-1.306,0.699-2.031,0.843
								c-0.144,0.028-0.285-0.122-0.229-0.264c0.64-1.614,3.569-1.569,4.729-0.66C133.427,177.819,133.411,177.888,133.359,177.881
								L133.359,177.881z"/>
						</g>
					</g>
				</g>
				<path style="fill:#39222F;" d="M154.186,178.883c-0.106-0.075-0.212-0.163-0.319-0.266c-0.375-0.362-0.685-0.797-1.11-1.099
					c-0.425-0.302-1.028-0.443-1.463-0.155c-0.359,0.238-0.497,0.687-0.709,1.062c-0.456,0.808-1.36,1.342-2.288,1.352
					c-0.266-1.984-0.583-3.969-0.798-5.959c-0.119-1.104,0.447-3.234-1.325-3.369c-0.268-0.021-0.535,0.054-0.803,0.04
					c-0.611-0.031-1.113-0.512-1.415-1.044c-0.302-0.532-0.464-1.134-0.755-1.672c-0.344-0.635-0.887-1.183-1.569-1.42
					c-0.682-0.237-1.504-0.118-2.019,0.388c-0.705,0.693-0.744,2.31-1.86,2.533c-0.837,0.167-1.519-0.502-2.391,0.126
					c-0.896,0.645-0.248,1.593-0.481,2.506c-0.156,0.61-0.665,1.179-1.294,1.19c-0.532,0.009-0.983-0.36-1.43-0.648
					s-1.049-0.506-1.489-0.207c-0.765,0.519-0.143,1.81-0.61,2.608c-0.609,1.039-2.526,0.513-3.125,1.558
					c-0.466,0.814,0.292,1.753,0.56,2.652c0.261,0.876,0.005,1.887-0.644,2.533c-0.648,0.645-1.66,0.898-2.536,0.632
					c0.789,0.299,1.579-0.66,1.485-1.499c-0.094-0.839-0.713-1.507-1.261-2.148c-0.549-0.641-1.085-1.42-0.964-2.255
					c0.096-0.657,0.711-1.231,0.572-1.908c-0.146-0.714-0.899-0.702-1.267-1.202c-0.492-0.668,0.021-1.31-0.102-2.049
					c-0.236-1.419-1.669-2.188-1.724-3.781c-0.044-1.302-0.7-2.404,0.672-3.414c0.91-0.67,2.088-0.814,3.183-1.093
					c1.095-0.279,2.259-0.816,2.675-1.867c0.243-0.614,0.185-1.299,0.232-1.957c0.047-0.659,0.251-1.38,0.818-1.718
					c0.861-0.514,1.996,0.137,2.956-0.148c0.933-0.277,1.389-1.323,1.593-2.274c0.204-0.951,0.306-1.994,0.956-2.717
					c0.657-0.73,1.743-0.943,2.713-0.786c0.923,0.15,1.749,0.881,2.633,0.98c0.69,0.077,1.653-0.342,2.294-0.562
					c1.012-0.348,2.035-0.747,3.105-0.751c1.07-0.004,2.222,0.492,2.647,1.474c0.251,0.581,0.379,1.416,1.009,1.482
					c0.425,0.045,0.759-0.331,1.119-0.562c1.997-1.279,3.671,1.898,4.2,3.298c0.29,0.767,0.615,1.564,1.117,2.221
					c0.499,0.653,1.19,0.79,1.727,1.307c0.362,0.348,1.347,3.718,0.396,3.626c0.976,0.094,1.722,0.991,1.96,1.942
					c0.239,0.951,0.079,1.952-0.081,2.919C158.703,170.436,157.301,181.078,154.186,178.883z"/>
				<g>
					<g>
						<path style="fill:#DA4652;" d="M137.346,179.841c0.191,0.879,0.63,1.738,0.964,2.304c0.826,1.398,2.08,2.2,3.44,2.202
							c0.225,0,0.45-0.019,0.671-0.055c1.038-0.17,2.009-0.728,2.634-1.539c0.622-0.807,0.877-1.795,0.738-2.858
							c-0.049-0.375-0.132-0.831-0.257-1.284l0.784-0.251l-0.584-2.475l-2.827,0.548l-0.005,0.017
							c-0.113,0.007-0.225,0.011-0.34,0.03c-0.687,0.119-1.433,0.276-2.347,0.495c-0.407,0.098-0.819,0.199-1.237,0.305
							C137.681,177.612,137.07,178.569,137.346,179.841z M138.085,179.683c-0.177-0.815,0.193-1.346,1.102-1.579
							c0.414-0.106,0.823-0.207,1.227-0.303c0.9-0.216,1.632-0.37,2.305-0.486c0.008-0.002,0.016-0.003,0.023-0.004
							c0.512-0.084,0.975-0.005,1.377,0.237c0.133,0.08,0.248,0.208,0.352,0.391c0.326,0.576,0.49,1.425,0.57,2.034
							c0.107,0.82-0.091,1.584-0.573,2.21c-0.629,0.814-1.688,1.32-2.757,1.318c-1.105-0.001-2.089-0.638-2.772-1.794
							C138.641,181.201,138.249,180.439,138.085,179.683z"/>
						<path style="fill:#FFFFFF;" d="M145.198,176.695c0.015,0.134,0.125,0.235,0.245,0.225c0.12-0.01,0.206-0.127,0.19-0.261
							c-0.015-0.135-0.125-0.236-0.245-0.225C145.268,176.444,145.182,176.561,145.198,176.695z"/>
					</g>
					<g>
						<path style="fill:#DA4652;" d="M132.328,179.04c-0.376,0.085-0.746,0.172-1.11,0.26c-0.817,0.198-1.475,0.379-2.07,0.569
							c-0.099,0.032-0.19,0.077-0.283,0.119l-0.011-0.013l-2.474,0.728l0.573,2.477l0.727-0.113c0.09,0.461,0.215,0.907,0.333,1.266
							c0.334,1.016,0.95,1.794,1.782,2.25c0.836,0.459,1.84,0.541,2.736,0.246c0.191-0.063,0.377-0.143,0.556-0.24
							c1.08-0.589,1.739-1.851,1.81-3.465c0.029-0.653,0.017-1.615-0.199-2.488C134.385,179.374,133.499,178.778,132.328,179.04z
							 M134.214,183.003c-0.058,1.334-0.573,2.332-1.45,2.809c-0.848,0.463-1.9,0.466-2.74,0.006
							c-0.645-0.354-1.122-0.955-1.38-1.739c-0.192-0.583-0.416-1.416-0.399-2.075c0.006-0.209,0.044-0.374,0.116-0.503
							c0.218-0.391,0.553-0.662,0.994-0.808c0.007-0.002,0.014-0.004,0.02-0.006c0.583-0.186,1.229-0.364,2.033-0.559
							c0.361-0.088,0.728-0.174,1.101-0.258c0.819-0.184,1.335,0.133,1.536,0.943C134.231,181.564,134.239,182.418,134.214,183.003z
							"/>
						<path style="fill:#FFFFFF;" d="M127.148,181.199c0.044,0.128-0.001,0.266-0.1,0.309c-0.1,0.043-0.216-0.025-0.26-0.153
							c-0.044-0.128,0.001-0.266,0.1-0.309C126.987,181.003,127.104,181.072,127.148,181.199z"/>
					</g>
					<g>
						<path style="fill:#DA4652;" d="M134.477,180.397c0.916-0.674,2.147-0.805,3.211-0.331l0.208-0.647
							c-1.255-0.556-2.704-0.409-3.786,0.389L134.477,180.397z"/>
					</g>
					<path style="fill:#DA4652;" d="M158.78,177.488c0.164-0.247,0.008-0.542-0.157-0.741c-0.244-0.295-0.538-0.528-0.811-0.793
						c-0.646-0.616-1.524-0.927-2.414-0.855l-9.661,0.785l0.584,2.475l9.185-1.883c0.386-0.079,0.787-0.002,1.116,0.214
						c0.219,0.144,0.438,0.288,0.658,0.432c0.269,0.177,0.526,0.409,0.823,0.539C158.336,177.764,158.644,177.693,158.78,177.488z"
						/>
				</g>
				<g>
					
						<path style="fill:#FF9B73;stroke:#EF714B;stroke-width:0.8454;stroke-linecap:round;stroke-linejoin:round;stroke-miterlimit:10;" d="
						M150.506,178.957c0.2-1.238,1.155-2.602,2.232-3.23c1.964-1.145,3.437,0.747,3.357,2.623c-0.104,2.452-1.454,5.842-4.321,5.956
						"/>
					
						<path style="fill:none;stroke:#EF714B;stroke-width:0.8454;stroke-linecap:round;stroke-linejoin:round;stroke-miterlimit:10;" d="
						M154.283,178.564c0.199-0.514-0.213-1.141-0.682-1.126c-1.18,0.036-1.522,1.854-1.484,2.775
						c0.501-0.207,0.876,0.361,0.745,0.82c-0.131,0.456-0.599,0.831-1.045,0.956"/>
					<g>
						<g>
							<path style="fill:#39222F;" d="M152.323,183.552c-0.17,0.52-0.04,1.109,0.064,1.634c0.177,0.889,1.529,0.511,1.357-0.374
								c-0.103-0.534-0.225-1.06-0.581-1.482C152.905,183.024,152.431,183.221,152.323,183.552L152.323,183.552z"/>
						</g>
					</g>
				</g>
			</g>
			<g>
				
					<path style="fill:#FF9B73;stroke:#EF714B;stroke-width:0.816;stroke-linecap:round;stroke-linejoin:round;stroke-miterlimit:10;" d="
					M175.441,221.468c0.396,7.625-1.738,27.282-2.341,29.888c-0.42,1.59-5.254,6.572-9.016,8.761
					c-10.21,5.943-19.17,10.012-19.17,10.012l-4.263-3.962c0,0,19.327-14.204,21.963-17.586c1.329-1.704,1.539-17.324,1.105-24.703
					C163.72,223.878,169.581,224.693,175.441,221.468z"/>
				<path style="fill:#F21E3D;" d="M177.019,224.136c-0.322-3.711-0.794-7.409-1.415-11.081c-0.433-2.562-0.827-5.257-1.532-7.755
					c-0.611-2.165-2.077-3.673-4.266-4.158c-1.821-0.404-4.218-0.353-5.798,0.766c-1.028,0.728-1.648,1.92-1.996,3.139
					c-1.503,5.273-1.015,11.142-0.388,16.512c0.18,1.542,0.027,3.572,1.718,4.209c1.822,0.686,4.156,0.576,6.045,0.366
					C170.125,226.053,177.077,224.814,177.019,224.136z"/>
				<g>
					
						<path style="fill:#FF9B73;stroke:#EF714B;stroke-width:0.816;stroke-linecap:round;stroke-linejoin:round;stroke-miterlimit:10;" d="
						M141.174,265.819l-10.048,4.705c-0.657,0.289-1.177,0.819-1.453,1.481l-2.033,4.871c-0.08,0.193,0.048,0.408,0.256,0.429l0,0
						c0.804,0.08,1.581-0.32,1.982-1.021l1.621-2.834l2.588-0.975l-3.154,3.986l-1.946,4.398c-0.051,0.115,0.004,0.249,0.12,0.296
						l0,0c0.847,0.339,1.816,0.042,2.329-0.712l0,0l0.135,0.037c0.896,0.246,1.849-0.111,2.362-0.885l1.774-2.678l1.625-1.133
						l-2.438,4.513l0,0c0.766,0.28,1.624,0.052,2.151-0.57l2.434-2.876l2.229-1.013c0.017-0.008,0.034-0.015,0.05-0.023
						c2.51-1.156,4.228-3.549,4.717-6.268l0.278-1.548"/>
					<g>
						<g>
							<path style="fill:#EF714B;" d="M131.283,280.597c1.096-1.491,1.333-3.41,2.721-4.723c0.767-0.725,1.865-1.317,1.875-2.474
								c0-0.048-0.049-0.069-0.088-0.051c-1.047,0.488-2.287,1.801-2.981,2.73c-0.906,1.212-1.444,2.984-1.676,4.454
								C131.119,280.626,131.227,280.674,131.283,280.597L131.283,280.597z"/>
						</g>
					</g>
				</g>
			</g>
			<g>
				
					<path style="fill:#FF9B73;stroke:#EF714B;stroke-width:0.816;stroke-linecap:round;stroke-linejoin:round;stroke-miterlimit:10;" d="
					M127.894,244.4c1.481,0.688,1.99,2.619,1.68,4.222c-0.31,1.603-1.227,3.011-1.905,4.496c-0.679,1.485-1.118,3.238-0.447,4.727
					c-0.139,1.256-1.135,2.615-2.408,2.92c-1.79,0.429-3.303,1.182-5.146,0.828c-0.162-0.031-0.071-3.012-0.068-3.312
					c0.011-1.138,0.047-2.276,0.072-3.414c0.044-2.031-0.074-4.065,0.054-6.094c0.117-1.861,0.753-3.98,1.814-5.471"/>
				
					<path style="fill:#FF9B73;stroke:#EF714B;stroke-width:0.816;stroke-linecap:round;stroke-linejoin:round;stroke-miterlimit:10;" d="
					M127.34,257.866l2.407,5.818l-1.514,5.502c0,0-1.726-0.168-1.276-2.304c0.45-2.135-0.241-3.135-0.241-3.135l-2.126,2.599
					c-0.194,0.237-0.286,0.539-0.257,0.844c0.088,0.891,0.263,2.653,0.361,3.661c0.057,0.591-0.108,1.198-0.523,1.621
					c-0.422,0.429-0.884,0.503-1.278,0.444c-0.214-0.784-0.951-5.654-0.951-5.654l0.229,5.281c0.027,0.628-0.364,1.198-0.959,1.398
					l-0.694,0.234l-0.802-3.233l-0.126,0.002c-0.835,0.012-1.563-0.566-1.741-1.382l-0.333-1.525l-0.526-0.566
					c-0.277-0.298-0.441-0.683-0.466-1.089l0.156-2.918c0.027-0.494,0.224-0.964,0.558-1.329l2.693-3.907"/>
				<g>
					<g>
						<path style="fill:#EF714B;" d="M122.419,264.443c-0.413,0.325-0.512,0.958-0.645,1.44c-0.138,0.497-0.419,1.14-0.213,1.637
							c0.082,0.198,0.293,0.269,0.464,0.122c0.426-0.366,0.467-1.123,0.567-1.653c0.093-0.493,0.266-1.048,0.042-1.519
							C122.592,264.383,122.482,264.394,122.419,264.443L122.419,264.443z"/>
					</g>
				</g>
				<g>
					<g>
						<path style="fill:#EF714B;" d="M119.98,271.669c0.174-0.937-0.1-1.802-0.281-2.725c-0.302-1.545-0.194-2.672,0.303-4.144
							c0.11-0.326-0.353-0.48-0.528-0.223c-1.307,1.912-0.68,5.189,0.328,7.116C119.838,271.764,119.964,271.752,119.98,271.669
							L119.98,271.669z"/>
					</g>
				</g>
				<g>
					<g>
						<path style="fill:#EF714B;" d="M117.799,264.662c-0.403,0.453-0.395,1.126-0.435,1.706c-0.053,0.784-0.193,1.642-0.024,2.413
							c0.076,0.348,0.586,0.321,0.678,0c0.216-0.755,0.125-1.633,0.121-2.413c-0.003-0.577,0.038-1.233-0.329-1.706
							C117.808,264.659,117.802,264.659,117.799,264.662L117.799,264.662z"/>
					</g>
				</g>
			</g>
		</g>
		<g>
			<g>
				<g>
					<path style="fill:#FFAD24;" d="M371.655,139.462c-8.857,7.993-24.731,21.448-29.014,30.504
						c-0.712,1.506-1.319,3.314-0.603,5.04c0.429,1.035,1.273,1.851,2.158,2.459c1.022,0.703,2.171,1.2,3.301,1.258
						c1.433,0.073,2.722-0.553,3.977-1.177c6.096-3.03,18.62-13.239,23.732-17.872c2.578-2.336,5.247-4.801,6.572-8.111
						c1.087-2.714,1.158-5.758,0.786-8.645c-0.344-2.668,1.206-9.912-2.24-9.008C377.872,134.554,373.549,137.753,371.655,139.462z"
						/>
				</g>
				<g>
					<path style="fill:#FF8400;" d="M382.71,142.582c-0.329-2.557-0.804-8.531-4.108-7.664c-0.07,0.019-0.139,0.05-0.209,0.071
						c-5.123,7.177-8.297,15.762-11.64,23.837c-1.406,3.395-2.359,6.956-3.288,10.522c4.55-3.685,9.249-8.04,12.194-10.709
						c2.47-2.239,5.028-4.601,6.298-7.773C382.999,148.266,383.067,145.349,382.71,142.582z"/>
				</g>
			</g>
			<g>
				<g>
					<path style="fill:#FF8400;" d="M379.302,357.878L379.302,357.878c1.073,2.271,1.629,4.75,1.629,7.26v1.486
						c0,0.436-0.312,0.808-0.743,0.886c-1.607,0.29-20.579,0.274-24.798,0.914c-4.219,0.64-9.549-0.416-9.549-3.118
						c16.211-4.761,20.997-7.428,20.997-7.428H379.302z"/>
					<path style="fill:#393938;" d="M354.501,367.378c3.801-0.577,21.736-0.98,26.429-1.266v0.512c0,0.435-0.312,0.808-0.743,0.886
						c-1.607,0.29-20.579,0.274-24.798,0.914c-3.777,0.573-8.439-0.214-9.377-2.323
						C347.778,367.411,351.432,367.844,354.501,367.378z"/>
					<g>
						<g>
							<path style="fill:#FFFFFF;" d="M361.28,359.968c0.729,0.472,1.737,0.721,2.57,0.941c0.965,0.255,1.379-1.267,0.411-1.491
								c-0.842-0.195-1.864-0.454-2.73-0.378C361.045,359.083,360.847,359.688,361.28,359.968L361.28,359.968z"/>
						</g>
					</g>
					<g>
						<g>
							<path style="fill:#FFFFFF;" d="M358.419,361.201c0.504,0.461,1.163,0.655,1.799,0.874c0.613,0.211,1.222,0.476,1.763,0.007
								c0.131-0.113,0.183-0.334,0.131-0.496c-0.215-0.677-0.889-0.761-1.512-0.897c-0.662-0.145-1.323-0.315-1.998-0.183
								C358.298,360.565,358.197,360.999,358.419,361.201L358.419,361.201z"/>
						</g>
					</g>
				</g>
				<g>
					<path style="fill:#292927;" d="M373.014,210.278l-0.921,8.636l-1.571,14.576l-5.608,43.428l0.402,9.103l-0.59,70.035
						c0,0,2.218,3.925,8.102,4.578c5.884,0.653,8.838-1.511,8.838-1.511l4.779-59.626l-0.794-13.714l16.372-72.211L373.014,210.278z
						"/>
					<g>
						<g>
							<path style="fill:#393938;" d="M371.503,232.126c1.128-0.489,2.05-1.532,2.868-2.421c0.861-0.934,1.671-1.929,2.378-2.985
								c0.422-0.631-0.587-1.207-1.012-0.592c-0.744,1.079-1.504,2.132-2.376,3.113c-0.734,0.827-1.641,1.576-2.224,2.519
								C370.983,232.01,371.277,232.223,371.503,232.126L371.503,232.126z"/>
						</g>
					</g>
					<path style="fill:#1E1E1C;" d="M387.262,230.997l-8.289,52.963c0,0,6.678,69.043-6.144,76.675
						c5.884,0.653,8.838-1.511,8.838-1.511l4.779-59.626l-0.794-13.714l16.372-72.211L387.262,230.997z"/>
				</g>
				<g>
					<path style="fill:#FF8400;" d="M407.101,359.061c0.74,3.559-0.337,6.126-0.814,10.727c-0.316,3.05-0.06,6.87,7.217,6.102
						c6.732-0.71,6.033-5.599,5.884-6.284c-0.148-0.686-2.144-8.376-2.144-8.376L407.101,359.061z"/>
					<g>
						<g>
							<path style="fill:#FFFFFF;" d="M410.482,365.525c0.947-0.161,1.842-0.469,2.813-0.504c0.777-0.028,1.524,0.284,2.238-0.065
								c0.281-0.137,0.269-0.509,0.092-0.714c-0.617-0.715-1.895-0.533-2.748-0.424c-0.994,0.127-1.986,0.439-2.735,1.121
								C409.859,365.196,410.166,365.578,410.482,365.525L410.482,365.525z"/>
						</g>
					</g>
					<g>
						<g>
							<path style="fill:#FFFFFF;" d="M410.236,367.23c0.685,0.194,1.405-0.105,2.097-0.185c0.877-0.101,1.747-0.074,2.624,0.009
								c0.223,0.021,0.417-0.136,0.534-0.306c0.122-0.178,0.119-0.272,0.062-0.477c-0.053-0.189-0.225-0.4-0.432-0.432
								c-1.391-0.214-4.153-0.34-5.028,1.04C410.009,367.011,410.092,367.189,410.236,367.23L410.236,367.23z"/>
						</g>
					</g>
					<g>
						<path style="fill:#393938;" d="M413.504,374.233c2.257-0.238,4.114-0.883,5.592-1.657c-0.605,1.449-2.095,2.946-5.592,3.315
							c-4.216,0.445-6.073-0.651-6.83-2.244C408.335,374.269,410.597,374.539,413.504,374.233z"/>
					</g>
				</g>
				<g>
					<path style="fill:#393938;" d="M378.171,211.577l1.525,15.178c0.297,2.952,1.738,5.586,3.915,7.153l0,0
						c1.305,0.939,2.231,2.446,2.57,4.183l9.476,53.597l9.501,69.865c0,0,1.38,0.961,7.413,0.465c6.033-0.495,6.44-2.834,6.44-2.834
						l-0.756-32.856c-0.31-8.478-1.284-16.905-2.911-25.177l-1.825-9.279l0.851-28.679c0.226-6.244,0.13-12.498-0.285-18.728
						l-0.481-7.207c-0.089-1.336,0.047-2.678,0.402-3.953l0,0c1.08-3.885,1.461-7.986,1.118-12.049l-0.961-11.381L378.171,211.577z"
						/>
					<path style="fill:#292927;" d="M410.055,291.873c1.554-30.716-3.381-57.703-3.381-57.703s-15.31,0-15.973-16.161l23.236-8.122
						l0.224-0.011l0.961,11.381c0.343,4.063-0.038,8.164-1.118,12.049c-0.355,1.275-0.491,2.618-0.402,3.953l0.481,7.207
						c0.416,6.231,0.511,12.484,0.285,18.728l-0.851,28.679l1.825,9.279c1.627,8.273,2.601,16.7,2.911,25.177l0.756,32.856
						C419.011,359.185,417.637,316.927,410.055,291.873z"/>
					<g>
						<g>
							<path style="fill:#393938;" d="M397.916,228.909c2.143,3.88,8.674,6.76,12.614,3.833c0.246-0.183,0.201-0.661-0.173-0.639
								c-2.326,0.138-4.257,0.868-6.612,0.158c-2.194-0.661-3.844-2.052-5.391-3.69
								C398.133,228.336,397.765,228.635,397.916,228.909L397.916,228.909z"/>
						</g>
					</g>
				</g>
			</g>
			<path style="fill:#D7E8EF;" d="M407.651,132.106c10.551,2.562,6.999,72.343,7.443,83.343c0.444,11-5.472-0.023-4.409-2.486
				c1.063-2.464,1.3-81.188-6.583-81.188C402.938,132.106,407.651,132.106,407.651,132.106z"/>
			<g>
				<path style="fill:#FFAD24;" d="M395.981,223.281c4.53-0.519,9.035-1.32,13.479-2.308c2.307-0.513,4.679-1.143,6.898-2.088
					c-0.504-2.17-0.944-4.359-1.361-6.546c-1.158-6.069-3.409-21.995-3.409-21.995s2.58-18.384,3.753-29.035
					c0.821-7.456,1.358-15.308-1.933-22.15c-0.466-0.968-1.936-3.035-2.638-3.946c-5.642-3.08-11.535-4.795-12.413-5.298
					c-4.283-0.099-8.186,0.233-12.369,1.482c-2.924,0.873-6.938,1.93-8.95,4.677c-1.253,1.71-1.406,3.984-1.51,6.117
					c-0.88,18.027-0.862,36.693-2.8,55.15c-0.552,5.259-1.421,10.504-2.2,15.783c-0.169,1.148-0.462,2.522-0.676,3.924
					C375.43,225.01,387.556,224.246,395.981,223.281z"/>
				<path style="fill:#FF8400;" d="M413.528,139.77c-0.466-0.968-1.04-1.911-1.742-2.821c-0.014-0.018-0.027-0.035-0.041-0.052
					c-1.733-2.208-5.235-1.268-5.941,1.517c-1.156,4.561-2.128,8.812-2.128,8.812l5.19,15.952c0,0,0.839,2.566,1.405,3.818
					c1.724,0.549,3.446,1.105,5.165,1.667c0.247-2.204,0.477-4.273,0.674-6.057C416.932,155.151,416.818,146.612,413.528,139.77z"/>
				<path style="fill:#FF8400;" d="M392.662,162.135c-4.758-1.776-10.273-3.605-15.257-1.553c0.77,1.646,1.295,3.396,2.068,5.042
					c1.464,3.115,3.725,2.948,6.575,3.119c3.802,0.228,7.195,2.464,10.482,4.2c5.645,2.982,10.562,5.044,16.456,7.484
					c0.394-3.484,1.358-7.822,1.748-11.293c-2.723-0.891-4.866-1.154-7.601-2.007C402.23,165.6,397.471,163.93,392.662,162.135z"/>
			</g>
			<path style="fill:none;" d="M377.853,120.163c0.04,0.145,0.081,0.291,0.121,0.436"/>
			<g>
				<path style="fill:#FF9B73;stroke:#EF714B;stroke-width:0.6096;stroke-miterlimit:10;" d="M383.802,128.094
					c0.606,1.605,0.451,3.375,0.291,5.046c-0.176,1.84-0.179,2-0.494,3.822c-0.022,0.129-0.039,0.26-0.06,0.39
					c1.35,1.252,2.727,1.965,4.827,2.062c1.938,0.089,3.834-0.324,5.546-1.226c1.548-0.815,4.683-3.099,5.711-5.436
					c-0.08-0.251-0.165-0.497-0.241-0.752c-1.608-5.433-2.364-10.026-2.436-15.454c-0.007-0.567-4.004-0.388-4.424-0.328
					c-1.586,0.229-3.349,0.818-4.607,1.846c-0.96,0.786-1.409,1.913-2.185,2.864c-1.198,1.467-2.395,2.835-3.337,4.495
					c-0.033,0.058,0.683,1.088,0.737,1.187C383.387,127.089,383.611,127.585,383.802,128.094z"/>
				<path style="opacity:0.3;fill:#FF9B73;" d="M383.803,128.094c0.606,1.605,0.451,3.375,0.291,5.046
					c-0.048,0.504-0.115,1.007-0.173,1.51c2.349-1.058,4.536-2.438,6.194-4.457c3.04-3.702,2.212-8.269,0.665-12.463
					c-0.104-0.282-0.11-0.551-0.051-0.795c-3.438,2.063-6.354,5-8.335,8.488c-0.033,0.058,0.683,1.088,0.737,1.187
					C383.387,127.089,383.611,127.585,383.803,128.094z"/>
			</g>
			<g>
				<g>
					<path style="fill:#39222F;" d="M373.318,101.38c-0.787,2.598-0.892,5.361-0.685,8.068c1.432-2.35,2.864-4.699,4.295-7.049
						c0.949-1.558,2.633-4.158,1.63-6.046c-1.148-2.162-3.09,0.635-3.744,1.688C374.17,99.081,373.672,100.211,373.318,101.38z"/>
					<path style="fill:#FF9B73;stroke:#EF714B;stroke-width:0.6399;stroke-linecap:round;stroke-miterlimit:10;" d="
						M392.718,122.901c-1.616,3.748-5.1,6.567-9.016,7.481c-3.029,0.708-4.88-0.71-6.482-3.227c-1.165-1.83-2.147-3.78-2.927-5.809
						c-0.392-1.021-0.847-2.12-1.044-3.201c-0.177-0.971,0.081-1.975-0.206-2.947c-0.2-0.678-0.641-1.259-0.875-1.926
						c-0.478-1.367-0.008-2.777,0.402-4.092c0.411-1.32,0.564-2.589,0.827-3.929c1.422-7.253,10.544-11.556,16.979-8.427
						c7.728,3.757,9.866,11.232,7.69,17.448"/>
					<path style="fill:#39222F;" d="M403.693,99.252c0.202-1.471-0.184-2.582-1.588-3.273c-0.892-0.439-1.906-0.661-2.683-1.282
						c-1.471-1.173-1.698-3.431-3.153-4.624c-0.979-0.804-2.344-0.967-3.605-0.844c-1.261,0.123-2.486,0.496-3.745,0.637
						c-1.787,0.199-3.592-0.075-5.389-0.017c-1.843,0.06-3.674,0.475-5.363,1.214c-1.206,0.528-2.364,1.242-3.185,2.272
						c-1.356,1.7-0.967,2.979-0.405,4.794c0.437,1.412,0.805,3.325,2.435,3.833c0.825,0.257,1.713,0.016,2.543-0.225
						c3.255-0.945,6.435-1.891,9.782-2.45c0.548-0.092,1.218-0.132,1.544,0.318c0.17,0.235,0.192,0.543,0.207,0.833
						c0.114,2.172,0.228,4.344,0.342,6.515c0.869-0.051,1.701,0.49,2.162,1.229c0.628,1.007,0.587,2.444,0.411,3.582
						c0.792-0.223,1.597-0.396,2.411-0.517c0.299-0.045,0.609-0.079,0.905-0.035l1.95,3.682c0.335-0.762,0.648-1.533,0.95-2.308
						c0.615-0.587,1.01-2.236,1.25-3.519C402.487,105.867,403.235,102.58,403.693,99.252z"/>
				</g>
				<g>
					<path style="fill:none;stroke:#EF714B;stroke-width:0.737;stroke-linecap:round;stroke-miterlimit:10;" d="M378.32,111.304
						c0.245,2.51,0.535,5.323-0.263,7.754c-0.107,0.326-0.232,0.678-0.123,1.004c0.122,0.366,0.496,0.576,0.84,0.752
						c0.487,0.249,0.973,0.498,1.46,0.747"/>
					<g>
						<path style="fill:#39222F;" d="M384.986,115.437c-1.277-0.069-1.172-2.055,0.108-1.985
							C386.372,113.521,386.266,115.506,384.986,115.437L384.986,115.437z"/>
					</g>
					<g>
						<path style="fill:#39222F;" d="M374.073,115.168c0.001-0.024,0.002-0.049,0.003-0.073c0.045-1.211,2.008-1.093,1.871,0.102
							c-0.003,0.024-0.005,0.049-0.008,0.073C375.804,116.456,374.028,116.379,374.073,115.168L374.073,115.168z"/>
					</g>
					<g>
						<g>
							<path style="fill:#39222F;" d="M388.771,109.714c-1.953-1.141-5.563-1.082-7.52,0.037c-0.583,0.334-0.34,1.301,0.347,1.282
								c1.253-0.035,2.467-0.455,3.73-0.528c1.125-0.065,2.244,0.04,3.359-0.147C388.996,110.306,389.014,109.856,388.771,109.714
								L388.771,109.714z"/>
						</g>
					</g>
					<g>
						<g>
							<path style="fill:#39222F;" d="M377.051,110.445c-0.77-0.552-1.862-0.639-2.783-0.588c-0.896,0.049-2.027,0.098-2.68,0.764
								c-0.343,0.35-0.198,0.986,0.293,1.11c0.831,0.211,1.717-0.16,2.56-0.252c0.828-0.091,1.73-0.061,2.52-0.341
								C377.282,111.025,377.321,110.638,377.051,110.445L377.051,110.445z"/>
						</g>
					</g>
					<g>
						<g>
							<path style="fill:#EF714B;" d="M385.239,122.353c-0.874,0.417-1.602,0.988-2.544,1.284c-0.943,0.296-1.854,0.301-2.828,0.283
								c-0.33-0.006-0.418,0.524-0.08,0.588c1.823,0.344,4.571-0.337,5.574-2.033C385.409,122.394,385.316,122.317,385.239,122.353
								L385.239,122.353z"/>
						</g>
					</g>
				</g>
				<g>
					
						<path style="fill:#FF9B73;stroke:#EF714B;stroke-width:0.605;stroke-linecap:round;stroke-linejoin:round;stroke-miterlimit:10;" d="
						M395.478,112.422c0-0.293,0.016-0.585,0.057-0.876c0.125-0.883,0.506-1.765,1.21-2.312c0.705-0.547,1.767-0.677,2.491-0.156
						c0.676,0.486,0.913,1.378,0.992,2.206c0.204,2.162-0.386,4.391-1.633,6.169c-0.31,0.443-0.701,0.884-1.231,0.995
						c-0.529,0.111-1.178-0.297-1.107-0.833"/>
					<g>
						<g>
							<path d="M397.504,117.81c0.274,0.078,0.647,0.428,0.365,0.71c-0.152,0.151-0.384,0.135-0.543,0.295
								c-0.115,0.115-0.102,0.288,0,0.405c0.508,0.582,1.348-0.25,1.413-0.803c0.084-0.72-0.547-1.262-1.234-1.107
								C397.248,117.368,397.266,117.742,397.504,117.81L397.504,117.81z"/>
						</g>
					</g>
					
						<path style="fill:none;stroke:#EF714B;stroke-width:0.6399;stroke-linecap:round;stroke-linejoin:round;stroke-miterlimit:10;" d="
						M398.903,112.177c-0.031-0.244-0.065-0.494-0.183-0.71c-0.118-0.216-0.342-0.392-0.588-0.379
						c-0.232,0.012-0.429,0.189-0.533,0.396c-0.104,0.208-0.131,0.444-0.156,0.675c-0.1,0.901-0.2,1.803-0.3,2.704"/>
				</g>
			</g>
			<g>
				<path style="fill:#D7E8EF;" d="M399.414,212.074c0,0-0.318,13.543,3.351,20.32c3.668,6.777,12.662,3.184,14.216,0.589
					c0.618-1.032,1.464-5.285,1.887-8.624c0.126-0.988,1.102-1.206,1.165-2.245c0.257-4.273-0.109-8.682-1.831-10.816
					C414.65,206.895,399.414,212.074,399.414,212.074z"/>
				<path style="opacity:0.1;" d="M402.103,222.038c2.775,2.762,12.324,5.858,13.324,4.974c0.999-0.884,3.442-2.653,3.442-2.653
					c-0.033,0.261-0.069,0.528-0.107,0.799c-0.219,1.558-1.252,2.926-2.741,3.456c-0.276,0.098-0.549,0.163-0.816,0.188
					C403.435,228.931,400.771,220.712,402.103,222.038z"/>
				<path style="opacity:0.1;" d="M400.407,216.208c0.084,1.325,0.631,2.369,1.222,2.332c0.59-0.037,1.001-1.142,0.916-2.467
					c-0.084-1.325-0.631-2.369-1.222-2.332C400.733,213.778,400.323,214.883,400.407,216.208z"/>
			</g>
			<path style="fill:#D7E8EF;" d="M402.281,131.665c-6.4,2.671-9.811,12.604-10.376,24.902c-1.468,31.954,8.036,58.109,8.036,58.109
				s3.605,3.783,3.142-1.011c-0.463-4.793-8.744-44.415-8.213-55.077c1.142-22.918,12.798-26.478,12.798-26.478
				S405.203,130.446,402.281,131.665z"/>
			<g>
				<g>
					<g>
						<g>
							<path style="fill:#FFAD24;" d="M415.252,140.16c3.674,4.754,7.278,9.565,10.712,14.496c3.272,4.699,7.428,9.691,8.281,15.525
								c0.657,4.494-1.912,10.276-7.216,9.157c-2.591-0.546-5.288-4.07-6.84-6.024c-1.893-2.383-14.627-22.002-16.257-24.341
								c-1.17-1.678-0.918-4.641-0.935-6.603c-0.026-3.083,0.245-3.978,1.204-6.915c1.554-4.755,8.19,1.029,9.749,3.027
								C414.385,139.041,414.819,139.6,415.252,140.16z"/>
						</g>
					</g>
				</g>
				<g>
					<path style="fill:#FF9B73;stroke:#EF714B;stroke-width:0.5958;stroke-miterlimit:10;" d="M390.885,157.611
						c0,0-7.402-4.627-7.402-4.627c-0.291-0.159-0.626-0.216-0.953-0.162l-3.792,0.625c-0.312,0.051-0.595,0.204-0.808,0.438
						c-0.604,0.667-1.585,2.072,0.177,2.713c0,0-1.863-0.152-1.784,1.463c0.069,1.406,1.778,1.379,1.778,1.379
						s-1.113,1.396,0.618,2.243c0,0-0.417,2.469,2.16,3.072l8.042,0.001c0.351,0.164,0.702,0.329,1.054,0.493
						c3.861,1.808,20.395,8.693,24.74,10.674c3.959,1.806,8.742,4.693,13.257,3.774c3.382-0.688,5.477-3.73,3.599-7.119
						c-0.859-1.551-2.548-3.009-4.105-3.857C422.7,166.127,392.289,158.379,390.885,157.611z"/>
					<g>
						<g>
							<path style="fill:#EF714B;" d="M377.539,156.651c0.363,0.394,0.924,0.42,1.428,0.509c0.599,0.106,1.178,0.235,1.786,0.165
								c0.179-0.021,0.307-0.283,0.103-0.382c-0.581-0.281-1.198-0.355-1.83-0.458c-0.492-0.08-1.011-0.223-1.469,0.022
								C377.503,156.536,377.5,156.609,377.539,156.651L377.539,156.651z"/>
						</g>
					</g>
					<g>
						<g>
							<path style="fill:#EF714B;" d="M377.331,159.308c0.415,0.306,1.01,0.313,1.51,0.364c0.604,0.06,1.174,0.099,1.768-0.023
								c0.158-0.032,0.149-0.272,0-0.31c-0.546-0.139-1.084-0.156-1.645-0.192c-0.522-0.034-1.119-0.17-1.615,0.023
								C377.286,159.194,377.277,159.268,377.331,159.308L377.331,159.308z"/>
						</g>
					</g>
					<g>
						<g>
							<path style="fill:#EF714B;" d="M378.529,161.779c0.007,0.016,0.013,0.032,0.02,0.048c0.05,0.124,0.139,0.206,0.278,0.212
								c0.988,0.036,1.988,0.133,2.933-0.155c0.061-0.018,0.082-0.113,0.019-0.144c-0.918-0.452-1.941-0.4-2.952-0.277
								c-0.127,0.016-0.243,0.079-0.278,0.212C378.549,161.674,378.519,161.753,378.529,161.779L378.529,161.779z"/>
						</g>
					</g>
					<g>
						<g>
							<path style="fill:#EF714B;" d="M381.538,155.921c-0.045,0.22-0.045,0.308,0.052,0.507c0.058,0.118,0.221,0.119,0.307,0.04
								c0.148-0.136,0.172-0.189,0.207-0.39C382.166,155.71,381.615,155.547,381.538,155.921L381.538,155.921z"/>
						</g>
					</g>
					<g>
						<g>
							<path style="fill:#EF714B;" d="M381.792,158.042c-0.115,0.294-0.137,0.517,0.101,0.736c0.083,0.076,0.203,0.077,0.286,0
								c0.238-0.219,0.215-0.443,0.101-0.736C382.186,157.803,381.885,157.803,381.792,158.042L381.792,158.042z"/>
						</g>
					</g>
					<g>
						<g>
							<path style="fill:#EF714B;" d="M382.141,160.422c-0.018,0.04-0.037,0.079-0.055,0.119c-0.084,0.181-0.038,0.346,0.122,0.464
								c0.029,0.021,0.057,0.042,0.085,0.063c0.103,0.076,0.238,0.008,0.302-0.079c0.026-0.035,0.051-0.071,0.077-0.106
								c0.09-0.124,0.042-0.308-0.053-0.411c-0.03-0.033-0.061-0.067-0.092-0.1C382.427,160.264,382.207,160.281,382.141,160.422
								L382.141,160.422z"/>
						</g>
					</g>
					<g>
						<g>
							<path style="fill:#EF714B;" d="M382.501,162.266c0.041,0.303,0.087,0.46,0.346,0.616c0.101,0.061,0.238,0.004,0.269-0.109
								c0.078-0.294,0.005-0.435-0.183-0.689C382.769,161.86,382.465,161.998,382.501,162.266L382.501,162.266z"/>
						</g>
					</g>
				</g>
			</g>
			<g>
				<g>
					<path style="fill:#606060;" d="M385.042,157.107l-7.481,2.009c-0.588,0.158-1.193-0.191-1.351-0.779l-4.35-16.195
						c-0.158-0.588,0.191-1.193,0.779-1.351l7.481-2.009c0.588-0.158,1.193,0.191,1.351,0.779l4.35,16.195
						C385.979,156.344,385.63,156.949,385.042,157.107z"/>
					<g>
						<path style="fill:#4D4D4D;" d="M377.902,142.148c0.329,0.464,0.22,1.107-0.244,1.436c-0.464,0.329-1.107,0.22-1.436-0.244
							c-0.329-0.464-0.22-1.107,0.244-1.436C376.929,141.575,377.572,141.684,377.902,142.148z"/>
						<path style="fill:#7F7F7F;" d="M377.685,142.302c0.244,0.344,0.163,0.822-0.181,1.066c-0.344,0.244-0.822,0.163-1.066-0.181
							c-0.244-0.344-0.163-0.822,0.181-1.066C376.963,141.877,377.441,141.958,377.685,142.302z"/>
						<g>
							<g>
								<path style="fill:#FFFFFF;" d="M377.13,142.226c0.198,0.104,0.331,0.251,0.431,0.446c0.017,0.033,0.06,0.008,0.055-0.023
									c-0.043-0.278-0.188-0.424-0.452-0.503C377.117,142.131,377.085,142.202,377.13,142.226L377.13,142.226z"/>
							</g>
						</g>
					</g>
					
						<path style="fill:#FF9B73;stroke:#EF714B;stroke-width:0.5924;stroke-linecap:round;stroke-linejoin:round;stroke-miterlimit:10;" d="
						M347.1,178.052c2.527,0.262,5.582-1.634,7.504-2.844c3.217-2.026,8.559-5.085,11.278-7.742c2.806-2.742,5.71-5.159,8.801-7.61
						c2.079-1.649,4.178-1.513,6.257-3.163c1.504-1.193,2.918-2.226,3.872-3.918c0.13-0.232,0.249-0.478,0.271-0.743
						c0.065-0.774-0.826-1.061-1.402-0.732c1.009-1.018,0.891-1.369,0.697-1.741c-0.293-0.564-0.935-0.564-0.935-0.564
						c0.603-0.303,0.768-0.458,0.469-1.447c-0.339-1.122-1.559-0.604-2.189-0.476c-0.501,0.103-1.13,0.411-1.365,0.532
						c-0.063,0.033-0.118,0.071-0.171,0.119l-1.14,1.023l1.372-1.637c2.286-1.983,3.319-3.451,3.057-4.126
						c-0.262-0.675-1.007-0.152-1.007-0.152c-1.587,1.423-3.173,2.846-4.76,4.27c-1.081,0.97-2.162,1.94-3.244,2.909
						c-0.152,0.137-0.309,0.269-0.464,0.404c-0.005-0.114-0.011-0.237-0.017-0.358l-1.073-3.994
						c-0.274,0.034-0.514,0.238-0.642,0.489c-0.142,0.278-0.179,0.596-0.221,0.906c-0.351,2.558-1.239,5.503-2.916,7.523
						c-1.553,1.87-3.883,3.083-5.989,4.215c-2.264,1.217-6.952,2.957-9.351,3.876c-2.649,1.014-5.031,1.218-7.25,3.081
						c-1.953,1.639-3.718,3.505-4.232,6.095c-0.522,2.629,1.484,4.728,3.84,5.591C346.457,177.949,346.774,178.018,347.1,178.052z"
						/>
					<g>
						<g>
							<path style="fill:#EF714B;" d="M379.451,151.542c1.218-1.099,2.586-1.893,4.143-2.409c0.295-0.098,0.172-0.562-0.129-0.469
								c-1.633,0.506-3.087,1.423-4.131,2.787C379.28,151.521,379.391,151.596,379.451,151.542L379.451,151.542z"/>
						</g>
					</g>
				</g>
				<g>
					<g>
						<path style="fill:#EF714B;" d="M380.981,153.581c0.527-0.348,1.018-0.739,1.517-1.126c0.545-0.423,1.164-0.745,1.698-1.175
							c0.265-0.213-0.074-0.542-0.333-0.431c-1.146,0.488-2.334,1.593-2.951,2.663C380.888,153.555,380.938,153.61,380.981,153.581
							L380.981,153.581z"/>
					</g>
				</g>
			</g>
		</g>
		<g>
			<path style="fill:#42210B;" d="M268.81,131.841c-2.28,3.727-2.55,8.646-2.529,12.887c0.047,9.387-0.528,18.773-0.621,28.181
				c-0.084,8.423,0.362,20.272,8.407,25.185c3.484,2.128,7.751,2.451,11.833,2.503c2.283,0.029,4.697-0.045,6.634-1.254
				c3.937-2.457,4.561-7.376,4.848-11.594c0.869-12.773,1.662-25.648,0.739-38.441c-0.657-9.104-2.288-20.489-12.815-22.988
				c-4.769-1.132-10.383-0.416-14.208,2.84C270.16,129.958,269.409,130.862,268.81,131.841z"/>
			<g>
				<path style="fill:#FF9B73;stroke:#EF714B;stroke-width:0.6096;stroke-miterlimit:10;" d="M251.937,215.617
					c2.638-2.796,17.351-22.969,18.349-25.936c1.447-4.3,0.04-12.467-6.088-9.988c-2.659,1.076-22.667,31.171-23.828,32.636
					c-0.654,0.825-0.914,1.949-0.875,3.001c0.068,1.852,1.695,3.36,3.48,3.859C246.451,220.161,249.407,218.298,251.937,215.617z"/>
				<path style="fill:#FF9B73;stroke:#EF714B;stroke-width:0.6096;stroke-miterlimit:10;" d="M314.336,216.172
					c-2.638-2.796-17.351-22.969-18.349-25.936c-1.447-4.3-0.04-12.467,6.088-9.988c2.659,1.076,22.667,31.171,23.828,32.636
					c0.654,0.825,0.914,1.949,0.875,3.001c-0.068,1.852-1.695,3.36-3.48,3.859C319.822,220.716,316.866,218.854,314.336,216.172z"/>
				<path style="fill:#3F7FFC;" d="M305.644,242.9c-3.569-9.317-6.679-19.85-5.279-29.947c0.313-2.26,0.879-4.479,1.191-6.739
					c1.039-7.54-0.766-15.096-0.287-22.652c0.069-1.092,0.837-3.309,0.029-4.191c-0.783-0.855-3.664-1.138-4.781-1.499
					c-4.276-1.382-8.723-2.382-13.234-2.445c-4.53-0.063-8.813,1.063-13.091,2.445c-1.117,0.361-3.999,0.644-4.781,1.499
					c-0.808,0.882-0.041,3.099,0.029,4.191c0.48,7.555-1.326,15.112-0.287,22.652c0.312,2.26,0.878,4.479,1.191,6.739
					c1.4,10.097-1.709,20.63-5.279,29.947c-0.495,1.292,9.987,3.715,11.159,3.984c7.598,1.747,15.574,1.593,23.146-0.208
					C296.46,246.418,306.161,244.248,305.644,242.9z"/>
				<path style="fill:#204AE2;" d="M291.46,210.075c-1.466,0.077-2.932,0.148-4.398,0.213c-5.654,0.248-11.311,0.386-16.97,0.399
					c1.668,4.643,4.957,8.24,10.234,8.144c3.619-0.066,7.539-1.166,10.524-3.235c1.271-0.881,3.963-3.181,3.747-4.96
					C294.446,209.401,292.524,210.019,291.46,210.075z"/>
				<g>
					<path style="fill:#FF9B73;stroke:#EF714B;stroke-width:0.6096;stroke-miterlimit:10;" d="M280.476,193.661
						c17.139,0.375,16.365-13.678,16.71-15.278c-1.471-0.873-3.017-1.647-4.432-2.609c-3.275-2.226-5.159-5.926-4.624-9.893
						c0.15-1.115,0.794-2.715-0.518-3.241c-0.916-0.367-2.011-0.17-2.971-0.238c-1.333-0.095-2.665-0.212-3.995-0.35
						c-0.755-0.079-2.823-0.73-3.349,0.039c-0.761,1.112-0.428,3.418-0.542,4.724c-0.197,2.245-0.33,4.787-1.583,6.78
						c-1.182,1.88-3.827,3.291-5.714,4.423c-0.763,3.872,0.582,10.327,3.573,12.739
						C275.024,192.363,277.956,193.606,280.476,193.661z"/>
					<path style="opacity:0.33;fill:#AA5D46;" d="M283.317,174.81c2.066-0.495,3.847-1.713,5.175-3.311
						c-0.558-1.879-0.565-4.116-0.362-5.617c0.15-1.115,0.794-2.715-0.518-3.241c-0.915-0.367-2.011-0.169-2.97-0.238
						c-1.333-0.095-2.665-0.212-3.994-0.35c-0.755-0.079-2.823-0.73-3.349,0.039c-0.762,1.112-0.428,3.418-0.543,4.723
						c-0.116,1.323-0.216,2.747-0.53,4.104C277.71,173.56,279.899,175.628,283.317,174.81z"/>
				</g>
			</g>
			<g>
				<path style="fill:#FF9B73;stroke:#EF714B;stroke-width:0.6096;stroke-miterlimit:10;" d="M271.225,151.87
					c-0.708-0.37-1.636-0.409-2.224,0.126c-0.479,0.436-0.636,1.163-0.546,1.823c0.09,0.66,0.392,1.271,0.709,1.854
					c1.053,1.935,2.331,3.74,3.798,5.362c0.398,0.44,0.963,0.904,1.493,0.676c0.515-0.221,0.602-0.931,0.575-1.512
					C274.903,157.39,273.93,153.285,271.225,151.87z"/>
				<path style="fill:#FF9B73;stroke:#EF714B;stroke-width:0.6096;stroke-miterlimit:10;" d="M292.895,148.832
					c0.531-0.597,1.384-0.963,2.124-0.671c0.602,0.238,1.007,0.862,1.156,1.512c0.15,0.649,0.084,1.327-0.006,1.985
					c-0.298,2.182-0.854,4.323-1.651,6.36c-0.216,0.552-0.58,1.186-1.156,1.162c-0.56-0.024-0.893-0.657-1.074-1.21
					C291.413,155.297,290.868,151.113,292.895,148.832z"/>
				<path style="fill:#FF9B73;stroke:#EF714B;stroke-width:0.6096;stroke-miterlimit:10;" d="M293.247,149.963
					c-0.645-4.484-2.04-10.911-5.995-13.844c-2.821-2.092-7.403-2.754-10.534-1.392c-3.891,1.693-5.621,5.129-6.085,9.127
					c-0.37,3.181,0.239,6.316,0.612,9.464c0.332,2.8,1.099,5.601,2.419,8.129c1.358,2.6,3.489,4.725,5.959,6.307
					c1.079,0.691,2.664,1.52,3.983,1.378c2.569-0.278,4.655-2.414,6.175-4.334C293.089,160.619,293.993,155.146,293.247,149.963z"/>
				<g>
					
						<path style="fill:#FF9B73;stroke:#EF714B;stroke-width:0.6096;stroke-linecap:round;stroke-linejoin:round;stroke-miterlimit:10;" d="
						M283.13,158.768c0.499-0.229,1.036-0.493,1.277-0.986c0.45-0.919-0.13-2.074-0.396-2.954c-0.349-1.153-0.637-2.324-0.864-3.507
						"/>
					<g>
						<path style="fill:#42210B;" d="M276.968,155.046c1.33-0.28,0.897-2.348-0.435-2.067
							C275.202,153.259,275.636,155.327,276.968,155.046L276.968,155.046z"/>
					</g>
					<g>
						<path style="fill:#42210B;" d="M288.672,153.487c1.329-0.286,0.886-2.351-0.444-2.065
							C286.899,151.708,287.341,153.774,288.672,153.487L288.672,153.487z"/>
					</g>
					<path style="fill:none;stroke:#42210B;stroke-width:0.54;stroke-linecap:round;stroke-miterlimit:10;" d="M274.492,149.066
						c1.405-0.577,2.964-0.778,4.469-0.574"/>
					<path style="fill:none;stroke:#42210B;stroke-width:0.54;stroke-linecap:round;stroke-miterlimit:10;" d="M285.213,147.529
						c1.392-0.477,2.902-0.606,4.355-0.372"/>
					<path style="fill:none;stroke:#42210B;stroke-width:0.4588;stroke-linecap:round;stroke-miterlimit:10;" d="M281.549,161.766
						c0.582,0.41,1.334,0.569,2.032,0.431c0.698-0.138,1.333-0.572,1.715-1.172"/>
					<g>
						<path style="fill:#FF9B73;" d="M287.406,155.589c0.645-0.48,1.291-0.961,1.936-1.441"/>
						<g>
							<path style="fill:#EF714B;" d="M287.442,155.651c0.629-0.468,1.461-0.829,1.971-1.432c0.076-0.09-0.017-0.202-0.121-0.157
								c-0.719,0.314-1.298,1.002-1.921,1.466C287.297,155.582,287.369,155.706,287.442,155.651L287.442,155.651z"/>
						</g>
					</g>
					<g>
						<path style="fill:#FF9B73;" d="M288.527,155.398c0.702-0.484,1.403-0.968,2.105-1.452"/>
						<g>
							<path style="fill:#EF714B;" d="M288.549,155.437c0.71-0.411,1.646-0.779,2.154-1.449c0.045-0.06-0.03-0.141-0.094-0.122
								c-0.8,0.233-1.481,0.986-2.115,1.5C288.454,155.398,288.506,155.462,288.549,155.437L288.549,155.437z"/>
						</g>
					</g>
					<g>
						<path style="fill:#FF9B73;" d="M289.901,155.237c0.565-0.361,1.131-0.722,1.696-1.082"/>
						<g>
							<path style="fill:#EF714B;" d="M289.915,155.285c0.58-0.231,1.422-0.543,1.78-1.074c0.06-0.09-0.039-0.178-0.126-0.164
								c-0.61,0.098-1.262,0.739-1.702,1.155C289.832,155.234,289.867,155.304,289.915,155.285L289.915,155.285z"/>
						</g>
					</g>
					<g>
						<path style="fill:#FF9B73;" d="M275.394,157.477c0.509-0.454,1.018-0.908,1.527-1.363"/>
						<g>
							<path style="fill:#EF714B;" d="M275.431,157.541c0.556-0.301,1.232-0.845,1.576-1.376c0.058-0.09-0.053-0.179-0.137-0.137
								c-0.564,0.282-1.179,0.896-1.541,1.412C275.285,157.504,275.371,157.574,275.431,157.541L275.431,157.541z"/>
						</g>
					</g>
					<g>
						<path style="fill:#FF9B73;" d="M276.434,157.188c0.462-0.405,0.924-0.81,1.386-1.215"/>
						<g>
							<path style="fill:#EF714B;" d="M276.465,157.242c0.49-0.254,1.22-0.723,1.424-1.249c0.021-0.054-0.04-0.1-0.088-0.088
								c-0.548,0.132-1.107,0.805-1.421,1.252C276.343,157.211,276.415,157.268,276.465,157.242L276.465,157.242z"/>
						</g>
					</g>
					<g>
						<path style="fill:#FF9B73;" d="M277.664,156.804c0.562-0.454,1.124-0.908,1.686-1.362"/>
						<g>
							<path style="fill:#EF714B;" d="M277.718,156.896c0.574-0.406,1.264-0.828,1.7-1.387c0.066-0.084-0.013-0.199-0.115-0.15
								c-0.643,0.31-1.194,0.89-1.714,1.368C277.5,156.809,277.617,156.968,277.718,156.896L277.718,156.896z"/>
						</g>
					</g>
				</g>
				<path style="fill:#42210B;" d="M272.198,158.22c-1.125-3.544-2.25-7.089-3.374-10.633c0.751-0.235,2.208-0.873,2.92-0.286
					c0.716,0.59,0.407,2.171,0.411,2.965c0.007,1.326,0.015,2.651,0.022,3.977C272.182,155.392,271.853,157.134,272.198,158.22z"/>
				<path style="fill:#42210B;" d="M293.552,156.167c0.421-3.695,0.841-7.389,1.262-11.084c-0.782-0.086-2.335-0.431-2.92,0.282
					c-0.589,0.717,0.02,2.209,0.168,2.988c0.248,1.302,0.497,2.605,0.745,3.907C293.022,153.389,293.681,155.035,293.552,156.167z"
					/>
				<path style="fill:#42210B;" d="M275.539,145.628c-0.494,0.488-0.001,1.416,0.678,1.561c0.679,0.145,1.356-0.212,1.947-0.576
					c2.807-1.729,5.331-3.915,7.442-6.447c0.974,1.847,1.991,3.748,3.619,5.055c1.628,1.307,4.044,1.871,5.823,0.778
					c1.64-1.007,2.207-3.363,1.36-5.059c-0.903-1.806-2.115-3.928-3.402-5.534c-1.583-1.974-3.74-3.533-6.191-4.164
					c-2.35-0.605-4.833-0.344-7.222,0.078c-1.515,0.268-3.045,0.609-4.39,1.357c-1.637,0.91-2.904,2.376-3.891,3.967
					c-1.599,2.579-3.495,6.687-3.363,9.813C268.145,151.123,274.103,147.163,275.539,145.628z"/>
				<path style="fill:#204AE2;" d="M271.504,133.616c2.824-3.338,7.414-5.403,11.707-5.167c1.869,0.103,3.673,1.225,5.103,2.366
					c2.119,1.69,3.93,3.959,4.389,6.631c-1.753-3.549-5.689-5.611-9.613-6.135c-1.419-0.189-2.867-0.209-4.278,0.033
					c-2.539,0.435-4.921,1.736-6.659,3.637c-0.781,0.855-1.426,1.827-1.925,2.871c-0.235,0.491-0.585,1.871-1.28,1.814
					C268.834,137.57,270.198,135.16,271.504,133.616z"/>
			</g>
			<g>
				<g>
					<path style="fill:#282F42;" d="M258.393,244.243c1.077,0.537,9.153,6.116,21.176,6.116c12.023,0,22.218-6.023,23.426-6.26
						c1.16,1.739,2.178,4.201,2.178,4.201c0.038,0.09,0.025,0.193-0.035,0.27l-19.392,22.939c-4.378,0.918-9.978,0.148-9.978,0.148
						l-19.449-23.337c-0.07-0.084-0.082-0.203-0.029-0.299C256.289,248.021,258.265,244.18,258.393,244.243z"/>
					<path style="fill:#2A2A2B;" d="M257.263,249.454c0.52-0.971,1.065-1.954,1.13-1.922c1.077,0.537,9.153,6.116,21.176,6.116
						c12.023,0,22.218-6.023,23.426-6.26c0.462,0.694,0.901,1.501,1.263,2.222l0.88-1.04c0.06-0.077,0.074-0.18,0.035-0.27
						c0,0-1.019-2.461-2.178-4.201c-1.208,0.237-11.402,6.26-23.426,6.26c-12.023,0-20.099-5.579-21.176-6.116
						c-0.127-0.064-2.104,3.778-2.104,3.778c-0.053,0.096-0.041,0.215,0.029,0.299L257.263,249.454z"/>
					<path style="fill:#0A1744;" d="M306.773,269.701c7.491-3.615,23.876-13.354,30.778-27.932c0.96-2.028-1.441-10.593-9.304-7.825
						c-4.865,1.713-30.144,10.254-34.231,15.673c-6.602,8.753-6.909,16.726-8.27,21.893
						C289.458,273.111,303.027,271.508,306.773,269.701z"/>
					<path style="fill:#0A1744;" d="M253.809,269.758c-7.491-3.615-29.19-19.249-30.199-27.99c-0.257-2.229-2.432-9.06,6.897-8.765
						c4.865,1.713,32.053,11.609,36.638,16.613c5.746,6.27,7.63,17.124,8.27,21.893
						C271.702,273.111,257.554,271.566,253.809,269.758z"/>
					<path style="fill:#323233;" d="M279.569,250.359c-1.401,0-2.745-0.078-4.033-0.213v3.236c0,0.452,0.366,0.819,0.819,0.819
						h6.429c0.452,0,0.819-0.367,0.819-0.819v-3.244C282.288,250.277,280.941,250.359,279.569,250.359z"/>
					<path style="fill:#DBDDD9;" d="M282.749,250.139v2.355c0,0.268-0.217,0.485-0.485,0.485h-5.389
						c-0.268,0-0.485-0.217-0.485-0.485v-2.348l-0.853,0.001v3.236c0,0.452,0.366,0.819,0.819,0.819h6.429
						c0.452,0,0.819-0.367,0.819-0.819v-3.244L282.749,250.139z"/>
				</g>
				<g>
					<path style="fill:#FF9B73;stroke:#EF714B;stroke-width:0.6096;stroke-miterlimit:10;" d="M284.485,272.384
						c0.177-0.188,0.357-0.371,0.529-0.563c2.087-2.329,2.858-4.779,3.104-7.59c-0.957-0.143-1.769-0.283-2.373-0.416
						c-2.54-1.035-8.471-4.059-15.543-7.793c-0.158,3.177-0.579,6.332-0.934,9.493c4.189,1.212,8.303,2.556,11.268,3.662
						C280.899,270.415,282.046,271.771,284.485,272.384z"/>
					<g>
						<path style="fill:#F21E3D;" d="M303.615,265.623c-7.143-0.315-14.908-1.156-17.87-1.808c-0.201-0.082-0.429-0.181-0.671-0.288
							l-5.741,5.211c0.417,0.149,0.821,0.296,1.203,0.439c0.432,1.474,1.951,3.129,5.472,3.479
							c1.871,0.186,12.528,4.005,17.483,3.569c8.257-0.725,8.221-4.41,8.257-6.045C311.784,268.544,309.757,265.894,303.615,265.623
							z"/>
						<path style="fill:#DCE8EF;" d="M303.491,276.226c8.257-0.725,8.221-4.41,8.257-6.045c0.031-1.447-1.556-3.684-6.171-4.37
							c-1.164,0.976-2.9,3.965-3.098,8.026c-9.331,0.362-17.587-2.915-21.924-4.611c0.451,1.461,1.971,3.084,5.454,3.43
							C287.88,272.843,298.536,276.661,303.491,276.226z"/>
						<path style="fill:none;stroke:#E6E7E8;stroke-width:0.868;stroke-linecap:round;stroke-miterlimit:10;" d="M290.37,264.01
							L290.37,264.01c-0.982,1.587-1.496,3.418-1.485,5.284l0.002,0.4"/>
						<path style="fill:none;stroke:#E6E7E8;stroke-width:0.868;stroke-linecap:round;stroke-miterlimit:10;" d="M292.89,264.413
							L292.89,264.413c-0.981,1.587-1.496,3.418-1.485,5.284l0.002,0.399"/>
						<path style="fill:none;stroke:#E6E7E8;stroke-width:0.868;stroke-linecap:round;stroke-miterlimit:10;" d="M295.44,264.737
							L295.44,264.737c-0.982,1.587-1.496,3.418-1.485,5.284l0.002,0.4"/>
						<path style="fill:none;stroke:#E6E7E8;stroke-width:0.868;stroke-linecap:round;stroke-miterlimit:10;" d="M297.604,264.984
							L297.604,264.984c-0.982,1.587-1.496,3.418-1.485,5.284l0.002,0.4"/>
					</g>
					<path style="opacity:0.05;" d="M285.746,263.815c-1.301-0.53-3.485-1.609-6.246-3.054l0,0
						c-1.966,1.085-4.274,2.382-4.839,2.637c-0.65,0.146-5.105,0.73-8.075,1.384c5.064,1.376,10.354,3.055,13.95,4.396
						c0.097,0.331,0.252,0.671,0.47,1.003c3.757-2.041,13.098-3.421,16.801-4.913C292.634,264.868,287.909,264.291,285.746,263.815z
						"/>
					<path style="fill:#1D2956;" d="M230.507,233.003c0,0,25.561,14.806,42.3,23.716c0,3.233-0.416,6.607-0.632,7.366
						c-0.582,1.332-4.174,5.975-5.74,7.839c-6.025-3.947-8.868-5.734-12.534-6.849c-24.48-7.441-26.685-10.925-32.632-21.387
						C218.984,239.669,222.958,231.005,230.507,233.003z"/>
					<path style="opacity:0.5;" d="M221.015,243.147c-0.038-0.095-0.076-0.19-0.109-0.289c-0.018-0.056-0.033-0.115-0.049-0.173
						c-0.027-0.092-0.054-0.184-0.076-0.278c-0.014-0.063-0.025-0.127-0.037-0.191c-0.018-0.093-0.037-0.186-0.05-0.281
						c-0.01-0.066-0.016-0.133-0.023-0.2c-0.011-0.096-0.021-0.192-0.028-0.289c-0.004-0.068-0.006-0.136-0.008-0.205
						c-0.004-0.099-0.006-0.198-0.006-0.298c0.001-0.068,0.003-0.137,0.006-0.206c0.004-0.102,0.008-0.205,0.016-0.309
						c0.005-0.068,0.012-0.136,0.019-0.204c0.011-0.106,0.023-0.213,0.039-0.32c0.009-0.066,0.02-0.132,0.031-0.198
						c0.019-0.111,0.039-0.221,0.062-0.332c0.013-0.063,0.027-0.127,0.042-0.19c0.026-0.115,0.056-0.229,0.087-0.343
						c0.016-0.06,0.033-0.119,0.051-0.179c0.035-0.118,0.073-0.236,0.114-0.354c0.019-0.055,0.038-0.11,0.058-0.166
						c0.044-0.123,0.092-0.244,0.142-0.365c0.02-0.05,0.04-0.1,0.062-0.149c0.055-0.127,0.114-0.252,0.174-0.377
						c0.021-0.043,0.041-0.086,0.062-0.129c0.067-0.132,0.138-0.263,0.211-0.392c0.019-0.034,0.037-0.068,0.057-0.102
						c0.083-0.141,0.17-0.28,0.26-0.417c0.013-0.021,0.026-0.042,0.04-0.062c0.105-0.157,0.216-0.311,0.331-0.462l0,0
						c0.157,0.27,0.314,0.548,0.473,0.847c6.813,12.804,41.843,25.085,49.209,27.549c-0.001,0.002-0.001,0.004-0.002,0.005
						c-0.586,1.335-4.173,5.973-5.738,7.836c-6.025-3.947-8.868-5.734-12.534-6.849c-24.48-7.441-26.685-10.925-32.632-21.387
						c-0.074-0.129-0.14-0.264-0.201-0.402C221.049,243.241,221.033,243.193,221.015,243.147z"/>
				</g>
				<g>
					<path style="fill:#FF9B73;stroke:#EF714B;stroke-width:0.6096;stroke-miterlimit:10;" d="M292.611,263.411
						c-0.527-2.166-0.796-4.641-1.914-6.613c-7.378,3.804-13.554,6.751-16.009,7.333c-0.442,0.099-0.995,0.205-1.624,0.313
						c0.949,3.064,3.796,5.022,6.929,5.93c0.405-0.599,0.664-1.188,0.734-1.662c2.955-1.203,7.619-2.513,12.243-3.614
						C292.861,264.531,292.746,263.966,292.611,263.411z"/>
					<path style="fill:#1D2956;" d="M330.21,233.398c0,0-25.561,14.806-42.3,23.716c0,3.233,0.416,6.607,0.632,7.366
						c0.582,1.332,4.174,5.975,5.739,7.839c6.025-3.947,8.868-5.734,12.534-6.849c24.48-7.441,26.685-10.926,32.632-21.387
						C341.733,240.064,337.759,231.4,330.21,233.398z"/>
					<path style="opacity:0.5;" d="M339.702,243.541c0.038-0.095,0.076-0.19,0.109-0.289c0.018-0.056,0.033-0.115,0.049-0.173
						c0.027-0.092,0.054-0.184,0.076-0.278c0.015-0.063,0.025-0.127,0.037-0.191c0.018-0.093,0.037-0.186,0.05-0.28
						c0.01-0.066,0.015-0.133,0.023-0.2c0.011-0.096,0.021-0.191,0.028-0.289c0.004-0.068,0.006-0.136,0.008-0.205
						c0.004-0.099,0.007-0.198,0.006-0.298c0-0.068-0.003-0.137-0.006-0.206c-0.004-0.102-0.008-0.205-0.016-0.309
						c-0.005-0.068-0.012-0.136-0.019-0.204c-0.011-0.106-0.023-0.213-0.039-0.32c-0.009-0.066-0.02-0.132-0.031-0.198
						c-0.019-0.11-0.039-0.221-0.062-0.332c-0.013-0.063-0.027-0.126-0.042-0.19c-0.027-0.115-0.056-0.229-0.087-0.343
						c-0.016-0.06-0.033-0.119-0.051-0.179c-0.035-0.118-0.074-0.236-0.114-0.354c-0.019-0.055-0.038-0.111-0.057-0.166
						c-0.044-0.122-0.092-0.244-0.143-0.365c-0.02-0.05-0.04-0.099-0.061-0.149c-0.055-0.127-0.114-0.252-0.174-0.377
						c-0.021-0.043-0.041-0.086-0.062-0.129c-0.067-0.132-0.138-0.263-0.211-0.392c-0.019-0.034-0.037-0.068-0.057-0.102
						c-0.082-0.141-0.17-0.28-0.26-0.417c-0.013-0.021-0.026-0.042-0.04-0.062c-0.105-0.157-0.216-0.311-0.331-0.462l0,0
						c-0.157,0.27-0.315,0.548-0.473,0.847c-6.813,12.804-41.843,25.085-49.209,27.549c0.001,0.002,0.001,0.004,0.002,0.005
						c0.586,1.335,4.173,5.973,5.738,7.836c6.025-3.947,8.868-5.734,12.534-6.849c24.48-7.441,26.685-10.926,32.632-21.387
						c0.073-0.129,0.14-0.264,0.201-0.402C339.668,243.636,339.684,243.588,339.702,243.541z"/>
					<g>
						<path style="fill:#F21E3D;" d="M275.761,263.801c-0.408,0.145-0.771,0.258-1.072,0.329c-3.227,0.725-11.995,1.78-18.302,1.857
							c-6.147,0.075-6.921,2.977-6.885,4.613c0.036,1.636,3.434,5.302,5.963,5.625c7.803,0.996,17.195-2.565,19.066-2.751
							c3.898-0.388,5.965-3.194,6.197-4.763c0,0-3.706,1.023-2.917-0.808c0.71-1.648-0.268-3.536-2.002-3.997
							C275.686,263.875,275.656,263.844,275.761,263.801z"/>
						<path style="fill:#DCE8EF;" d="M257.959,274.524c1.227-3.605-0.065-6.915-0.928-8.55c-0.215,0.005-0.435,0.011-0.645,0.014
							c-6.147,0.075-6.921,2.977-6.885,4.613c0.036,1.636,3.434,5.302,5.963,5.625c7.803,0.996,17.195-2.565,19.066-2.751
							c1.875-0.187,3.322-0.934,4.349-1.833C273.631,273.027,257.868,276.987,257.959,274.524z"/>
						<path style="fill:none;stroke:#E6E7E8;stroke-width:0.868;stroke-linecap:round;stroke-miterlimit:10;" d="M270.673,264.497
							L270.673,264.497c0.982,1.587,1.496,3.418,1.485,5.284l-0.002,0.4"/>
						<path style="fill:none;stroke:#E6E7E8;stroke-width:0.868;stroke-linecap:round;stroke-miterlimit:10;" d="M268.153,264.899
							L268.153,264.899c0.982,1.587,1.496,3.418,1.485,5.284l-0.002,0.399"/>
						<path style="fill:none;stroke:#E6E7E8;stroke-width:0.868;stroke-linecap:round;stroke-miterlimit:10;" d="M265.603,265.224
							L265.603,265.224c0.982,1.587,1.496,3.418,1.485,5.284l-0.003,0.4"/>
						<path style="fill:none;stroke:#E6E7E8;stroke-width:0.868;stroke-linecap:round;stroke-miterlimit:10;" d="M263.438,265.471
							L263.438,265.471c0.982,1.587,1.496,3.418,1.485,5.284l-0.002,0.4"/>
					</g>
				</g>
			</g>
			<path style="fill:#FF9B73;stroke:#EF714B;stroke-width:0.6096;stroke-miterlimit:10;" d="M250.573,211.824l14.308,20.959
				c1.511,2.213,3.404,4.146,6.028,4.946c2.859,0.872,6.01,0.949,8.61,2.559c2.173,1.346,3.62,3.6,4.731,5.902
				c0.087,0.18,0.174,0.387,0.104,0.574c-0.085,0.229-0.436,0.546-0.673,0.486c-0.237-0.06-0.428-0.229-0.61-0.393
				c-0.933-0.842-1.613-2.126-2.485-3.059c-0.609-0.652-1.637-1.772-2.708-1.419c2.036,1.968,3.833,4.129,5.275,6.572
				c0.219,0.371,0.432,0.841,0.212,1.212c-0.221,0.373-0.782,0.404-1.157,0.186c-0.375-0.218-0.612-0.606-0.846-0.971
				c-1.34-2.085-3.106-3.895-5.159-5.285c1.785,1.15,3.335,2.663,4.527,4.42c0.276,0.406,0.539,0.842,0.607,1.328
				c0.069,0.486-0.103,1.037-0.527,1.285c-0.439,0.256-1.02,0.117-1.426-0.188c-0.407-0.305-0.684-0.747-0.976-1.163
				c-1.076-1.53-2.48-2.829-4.089-3.783c0.969,0.89,1.937,1.78,2.906,2.669c0.416,0.382,0.872,0.9,0.7,1.438
				c-0.156,0.487-0.783,0.682-1.276,0.548c-0.494-0.134-0.885-0.499-1.269-0.837c-0.985-0.87-2.055-1.643-3.19-2.306
				c-2.06-1.203-4.307-2.042-6.391-3.199c-2.11-1.172-3.593-2.883-5.261-4.6c-3.499-3.6-6.998-7.201-10.497-10.802
				c-3.105-3.195-6.219-6.401-9.086-9.806c-2.138-2.539-1.797-6.336,0.737-8.479"/>
			<path style="fill:#FF9B73;stroke:#EF714B;stroke-width:0.6096;stroke-miterlimit:10;" d="M315.7,212.379l-14.308,20.959
				c-1.511,2.213-3.404,4.146-6.028,4.946c-2.859,0.872-6.01,0.949-8.61,2.559c-2.173,1.346-3.62,3.6-4.731,5.902
				c-0.087,0.18-0.174,0.387-0.104,0.574c0.085,0.229,0.436,0.546,0.673,0.486c0.237-0.06,0.428-0.229,0.61-0.393
				c0.933-0.841,1.613-2.126,2.485-3.059c0.609-0.652,1.637-1.773,2.707-1.419c-2.036,1.968-3.833,4.129-5.275,6.572
				c-0.219,0.372-0.432,0.841-0.212,1.212c0.221,0.373,0.782,0.404,1.157,0.187c0.375-0.218,0.612-0.606,0.846-0.971
				c1.34-2.085,3.106-3.895,5.158-5.285c-1.785,1.15-3.335,2.663-4.527,4.42c-0.276,0.406-0.539,0.842-0.607,1.328
				c-0.069,0.486,0.103,1.037,0.527,1.285c0.439,0.256,1.02,0.117,1.426-0.189c0.407-0.305,0.684-0.747,0.976-1.163
				c1.076-1.53,2.48-2.829,4.089-3.783c-0.969,0.89-1.937,1.779-2.906,2.669c-0.416,0.382-0.872,0.9-0.7,1.438
				c0.156,0.487,0.783,0.682,1.276,0.548c0.494-0.134,0.885-0.499,1.269-0.837c0.985-0.87,2.055-1.643,3.19-2.306
				c2.06-1.203,4.306-2.042,6.391-3.199c2.11-1.172,3.593-2.883,5.261-4.6c3.499-3.6,6.998-7.201,10.497-10.802
				c3.105-3.195,6.219-6.401,9.086-9.806c2.138-2.539,1.797-6.336-0.737-8.479"/>
			<g>
				<path style="fill:#C5C8C9;" d="M253.606,250.845l7.466,6.94l42.608,0.126l7.63-7.068c0.986-0.913,1.546-2.196,1.546-3.54l0,0
					h-60.794l0,0C252.063,248.646,252.622,249.93,253.606,250.845z"/>
				<polygon style="fill:#939699;" points="252.063,247.302 263.356,256.57 302.858,256.57 312.857,247.302 				"/>
				<path style="fill:#C5C8C9;" d="M263.343,258.583h38.233c2.008,0,3.637-1.628,3.637-3.637l0,0h-45.506l0,0
					C259.707,256.954,261.335,258.583,263.343,258.583z"/>
				<path style="fill:#C5C8C9;" d="M305.212,254.946h-45.476l-6.9-25.28c-0.375-1.373,0.659-2.726,2.082-2.726h55.112
					c1.423,0,2.457,1.353,2.082,2.726L305.212,254.946z"/>
				<path style="fill:#E6E7E8;" d="M286.491,243.622c0,1.227-1.9,2.221-4.243,2.221c-2.343,0-4.243-0.994-4.243-2.221
					c0-1.227,1.9-2.221,4.243-2.221C284.591,241.401,286.491,242.395,286.491,243.622z"/>
			</g>
		</g>
		<g>
			<g>
				<g>
					<polygon style="fill:#FFAD27;" points="310.23,423.25 319.23,432.417 306.064,436.458 298.232,427.21 					"/>
					<path style="fill:#292927;" d="M313.425,429.186c1.139-0.167,6.139-5.833,6.139-5.833l0,0c1.729,0.814,2.833,2.553,2.833,4.465
						v2.619l14.319,5.279c1.143,0.421,1.972,1.423,2.172,2.624l0,0c0.288,1.733-0.794,3.399-2.495,3.839h0
						c-3.866,1-7.855,1.447-11.846,1.325l-23.112-0.702c-2.632-0.08-4.597-2.451-4.188-5.052l0.699-4.438
						c0.243-1.542,1.753-2.546,3.268-2.169c2.068,0.514,4.612,1.137,5.185,1.233C307.397,432.541,313.425,429.186,313.425,429.186z"
						/>
					<path style="fill:#FFAD27;" d="M336.392,442.177c1.701-0.44,2.783-2.106,2.495-3.839c-0.055-0.328-0.16-0.64-0.302-0.93
						c-4.09,2.921-9.134,4.198-14.127,3.536l-27.149-3.598l-0.063,0.402c-0.409,2.601,1.556,4.972,4.188,5.052l23.112,0.702
						C328.538,443.624,332.526,443.178,336.392,442.177z"/>
					
						<line style="fill:none;stroke:#E5E7E8;stroke-linecap:round;stroke-miterlimit:10;" x1="322.968" y1="430.249" x2="319.801" y2="433.437"/>
					
						<line style="fill:none;stroke:#E5E7E8;stroke-linecap:round;stroke-miterlimit:10;" x1="325.928" y1="431.21" x2="323.052" y2="434.105"/>
					
						<line style="fill:none;stroke:#E5E7E8;stroke-linecap:round;stroke-miterlimit:10;" x1="328.707" y1="432.434" x2="326.272" y2="434.885"/>
					
						<line style="fill:none;stroke:#E5E7E8;stroke-linecap:round;stroke-miterlimit:10;" x1="331.331" y1="433.267" x2="329.4" y2="435.211"/>
				</g>
				<path style="fill:#1C1C82;" d="M220.64,407.583c29.069-26.167,48.684-44.667,59.757-31.202c14.452,15.834,34,47.785,34,47.785
					l-17,12.292l-27.25-36.292l-31,29.418l-41.542-1l-3.455-19.418C194.15,409.167,207.099,419.773,220.64,407.583z"/>
				<path style="opacity:0.3;" d="M268.491,392.729c14.452,15.833,37.494,37.52,37.494,37.52l-8.588,6.209l-27.25-36.292l-31,29.418
					l-41.542-1C197.605,428.585,256.835,424.917,268.491,392.729z"/>
			</g>
			<g>
				
					<path style="fill:#FF9B73;stroke:#EF714B;stroke-width:0.8622;stroke-linecap:round;stroke-linejoin:round;stroke-miterlimit:10;" d="
					M294.253,364.622l10.085,2.016c0.76,0.152,1.465,0.507,2.04,1.028l4.41,3.997c0.728,0.66,1.208,1.55,1.361,2.521l0.677,4.327
					c0.109,0.694-0.409,1.329-1.11,1.363l0,0c-0.527,0.026-1.008-0.302-1.177-0.802l-1.368-4.05
					c-0.083-0.247-0.246-0.459-0.462-0.604l-4.107-2.75c-0.228-0.153-0.509-0.205-0.777-0.145l0,0
					c-0.845,0.188-1.08,1.287-0.384,1.801l4.352,3.214c0.462,0.341,0.612,0.966,0.354,1.48l-0.029,0.058
					c-0.297,0.591-1.021,0.824-1.606,0.516l-6.689-3.52c-0.035-0.019-0.07-0.039-0.103-0.061l-7.869-5.223
					c-0.498-0.33-0.671-0.98-0.403-1.514l1.517-3.024C293.204,364.775,293.731,364.517,294.253,364.622z"/>
				<g>
					<path style="fill:#FFAD27;" d="M290.121,376.522c-3.17,0.092-6.46-0.798-9.574-0.835c-5.872-0.071-11.507-0.239-17.276-1.085
						c-13.245-1.942-25.87-5.149-38.289-10.044c-4.933-1.944-9.509-4.102-14.523-5.805c2.199-5.179,3.578-10.596,6.257-15.62
						c4.362,1.485,22.838,9.127,24.767,9.667c17.898,5.004,29.436,6.78,45.781,7.997c2.346,0.174,4.352,0.223,6.348,1.435
						c3.502,2.126,4.765,6.667,3.35,10.063C295.547,375.691,293.291,376.43,290.121,376.522z"/>
				</g>
				<g>
					<path style="fill:#D4D4D4;" d="M231.667,367.005c1.099-2.736,1.702-5.408,2.09-8.404c0.381-2.94,0.728-5.947-0.128-8.832
						c-6.225-2.486-14.233-5.722-16.913-6.635c-2.679,5.024-4.058,10.441-6.257,15.62c5.014,1.703,9.591,3.861,14.523,5.805
						C227.202,365.433,229.432,366.235,231.667,367.005z"/>
				</g>
			</g>
			<g>
				<g>
					<path style="fill:#FFAD27;" d="M288.605,442.631h-20.452v-17.05h26.617c2.143,0,4.163,0.999,5.462,2.703l0,0
						c1.777,2.329,1.883,5.528,0.263,7.969l0,0C297.851,440.236,293.387,442.631,288.605,442.631z"/>
					<path style="fill:#292927;" d="M286.709,442.294h-19.646v-16.378h25.568c2.058,0,3.998,0.96,5.247,2.596l0,0
						c1.707,2.237,1.808,5.31,0.252,7.654l0,0C295.591,439.994,291.303,442.294,286.709,442.294z"/>
					
						<line style="fill:none;stroke:#E5E7E8;stroke-linecap:round;stroke-miterlimit:10;" x1="289.064" y1="430.417" x2="289.064" y2="436.458"/>
					
						<line style="fill:none;stroke:#E5E7E8;stroke-linecap:round;stroke-miterlimit:10;" x1="284.897" y1="429.585" x2="284.897" y2="437.626"/>
					
						<line style="fill:none;stroke:#E5E7E8;stroke-linecap:round;stroke-miterlimit:10;" x1="281.397" y1="428.585" x2="281.397" y2="438.626"/>
					
						<line style="fill:none;stroke:#E5E7E8;stroke-linecap:round;stroke-miterlimit:10;" x1="277.064" y1="428.585" x2="277.064" y2="439.626"/>
				</g>
				<g>
					<path style="fill:#363694;" d="M183.725,416.314v10.413c0,7.97,5.974,14.674,13.892,15.589l27.365,3.162
						c14.232,1.645,22.598,1.798,36.862,0.457l6.284-0.591c6.677-0.628,11.409-6.804,10.277-13.414l0,0
						c-0.947-5.531-5.743-9.576-11.355-9.576h-3.17c-12.95,0-23.881-0.991-36.68-2.965l-6.56-11.806L183.725,416.314z"/>
					<path style="opacity:0.3;" d="M214.586,421.243c3.196,0.362,36.812,3.09,51.865,7.072c2.98,0.789,5.631,2.617,7.207,5.267
						c3.447,5.795-0.033,11.399-34.455,13.12c7.154,0.324,13.753,0.069,22.641-0.767l5.927-0.557
						c6.473-0.608,11.459-6.328,10.727-12.788c-0.665-5.866-5.616-10.235-11.448-10.235h-3.17c-12.95,0-23.881-0.991-36.68-2.965
						C227.2,419.389,211.06,420.843,214.586,421.243z"/>
				</g>
			</g>
			<g>
				<path style="fill:#F2F7F1;" d="M232.654,350.567c-0.9-1.55-1.833-3.085-2.702-4.653c-0.775-1.398-1.106-3.206-1.602-4.738
					c-0.058-0.179-0.117-0.369-0.075-0.552c0.047-0.209,0.214-0.366,0.372-0.51c1.131-1.028,2.262-2.056,3.393-3.084
					c0.079-0.039,2.024,2.678,2.202,2.938c0.564,0.823,0.988,1.552,1.686,2.307c0.16,0.173,0.328,0.364,0.35,0.598
					c0.026,0.267-0.145,0.51-0.306,0.724c-0.876,1.162-1.797,2.203-2.291,3.564C233.396,347.946,232.147,349.694,232.654,350.567z"
					/>
				<path style="fill:#FFAD27;" d="M220.783,326.334c-14.276,0.9-38.338,15.801-43.053,46.583
					c-4.715,30.781,5.806,50.333,5.806,50.333s24.578-2.701,37.104-15.667c-1.631-14.324-16.803-16.997,5.435-40.484
					c4.168-4.402,6.606-10.255,6.323-16.311C231.72,336.258,224.003,326.038,220.783,326.334z"/>
				<g>
					<g>
						<path style="fill:#F2F7F1;" d="M228.421,351.8c0.264,5.169-3.344,9.044-6.219,12.952c-2.887,3.924-5.986,7.766-8.627,11.861
							c-0.166,0.257,0.225,0.569,0.429,0.331c3.613-4.198,6.801-8.821,10.147-13.234c2.64-3.481,5.665-7.329,4.722-11.971
							C228.822,351.485,228.407,351.54,228.421,351.8L228.421,351.8z"/>
					</g>
				</g>
				<path style="fill:#D4D4D4;" d="M206.774,354.034c0.24-2.216,0.428-4.438,0.521-6.665c0.037-0.897,0.343-2.456,0.066-3.345
					c-0.179-0.576,0.137-0.457-0.673-0.482c-3.821-0.12-6.81,4.41-8.424,7.259c-4.704,8.301-6.827,18.224-8.47,27.536
					c-0.684,3.877-1.065,7.796-1.92,11.641c-1.387,6.245-4.301,14.263,0.958,19.401c4.029,3.936,9.397,6.065,14.105,9.03
					c4.433-1.676,9.008-3.893,13.012-6.797c-0.857-1.726-1.592-3.526-2.462-5.279c-2.056-4.143-4.627-7.97-6.414-12.253
					c-1.556-3.731-2.823-7.596-3.154-11.647c-0.398-4.863,0.379-9.887,1.022-14.701
					C205.549,363.167,206.277,358.615,206.774,354.034z"/>
				<g>
					
						<path style="fill:#FF9B73;stroke:#EF714B;stroke-width:0.8622;stroke-linecap:round;stroke-linejoin:round;stroke-miterlimit:10;" d="
						M241.222,324.934c-0.157-2.229-0.867-4.373-2.023-6.193c-1.104-1.739-2.488-3.714-4.301-4.69
						c-0.341-0.184-0.736-0.341-1.121-0.218c-0.39,0.124-2.669,0.132-2.775,0.542c-1.295,4.985-3.404,8.498-6.48,12.254
						c-0.6,4.86-0.721,9.704,0.852,14.431c0.841,2.53,2.986,7.752,2.892,11.223c1.501-2.908,2.63-7.446,3.115-8.225
						c1.395-2.24,2.758-4.479,4.334-6.602c1.456-1.96,3.286-3.345,4.283-5.625C240.951,329.65,241.386,327.253,241.222,324.934z"/>
					<path style="opacity:0.5;fill:#FF9B73;" d="M241.714,324.899c-0.163-2.295-0.888-4.516-2.099-6.422
						c-0.608-0.958-1.256-1.908-1.981-2.75c-3.717,5.128-5.795,10.294-6.563,16.632c-0.378,3.117-0.488,6.272-0.495,9.411
						c0,0.054,0.006,0.104,0.007,0.158c0.029,0.072,0.054,0.143,0.083,0.215c0.323,0.776,0.648,1.583,1.01,2.366
						c0.041-0.064,0.082-0.128,0.123-0.192l0.421-0.678c1.222-1.966,2.484-3.999,3.89-5.89c0.499-0.672,1.057-1.29,1.597-1.888
						c1.015-1.123,2.064-2.285,2.742-3.835C241.445,329.75,241.882,327.286,241.714,324.899z"/>
				</g>
				<path style="fill:#F2F7F1;" d="M230.962,338.873c-0.889-2.508-1.777-5.016-2.666-7.524c-0.676-1.906-2.467-5.175-2.762-7.615
					c-1.633,1.103-3.35,1.978-5.241,2.184c-0.667,1.65,0.368,3.874,0.809,5.491c1.617,5.931,3.346,11.821,5.184,17.664
					c-0.388-1.233,4.859-6.839,5.542-7.757C231.539,340.503,231.251,339.688,230.962,338.873z"/>
			</g>
			<g>
				<path style="fill:#393938;" d="M301.093,385.574l-0.012,0.014c-0.287-0.014-0.576,0.087-0.771,0.328l-22.177,26.188l9.08,9.413
					l28.291-34.927L301.093,385.574z"/>
				<path style="fill:#BBBFC1;" d="M241.147,412.451l0.898,6.672h45.838l-8.834-8.221h-36.548
					C241.675,410.902,241.037,411.631,241.147,412.451z"/>
				<polygon style="fill:#FFFFFF;" points="298.885,388.772 310.713,389.81 287.964,416.414 280.761,410.751 				"/>
				<path style="fill:#D0D3D4;" d="M289.242,419.123h-47.197l0,0c0,2.342,1.898,4.24,4.24,4.24h38.717
					C287.344,423.362,289.242,421.464,289.242,419.123L289.242,419.123z"/>
				<path style="fill:#D0D3D4;" d="M288.504,421.517l27.776-33.103c0.389-0.481,0.315-1.186-0.165-1.575l0,0
					c-0.481-0.389-1.186-0.315-1.575,0.165l-27.776,33.103L288.504,421.517z"/>
				<polygon style="fill:#393938;" points="281.326,417.973 276.259,411.667 257.34,411.667 259.974,417.973 				"/>
				<polygon style="fill:#D0D3D4;" points="255.509,416.414 244.634,416.414 244.259,412.854 254.509,412.854 				"/>
				<polygon style="fill:#E5E7E8;" points="298.885,388.772 310.713,389.81 307.97,393.017 297.134,390.894 				"/>
				<polygon style="fill:#E5E7E8;" points="296.738,392.729 304.866,394.792 303.321,396.667 295.737,394.104 				"/>
				<polygon style="fill:#E5E7E8;" points="294.823,395.104 302.241,397.854 300.696,399.729 293.821,396.479 				"/>
				<polygon style="fill:#E5E7E8;" points="292.571,398.354 298.554,401.417 293.031,407.936 287.509,404.163 				"/>
			</g>
			<g>
				<g>
					
						<path style="fill:#FF9B73;stroke:#EF714B;stroke-width:0.8622;stroke-linecap:round;stroke-linejoin:round;stroke-miterlimit:10;" d="
						M230.771,408.623l9.229-2.252l7.152,3.576l3.445,5.364l0,0c-1.33,0.478-2.817,0.105-3.764-0.944l-1.881-2.082l0.413,3.815
						l-1.913,1.959l-4.689,0.69l-13.478-2.649l1.375-7.758L230.771,408.623z"/>
					<g>
						<g>
							<path style="fill:#EF714B;" d="M241.36,413.502c0.735,0.392,1.467,0.79,2.205,1.178c0.611,0.321,1.193,0.674,1.891,0.723
								c0.222,0.016,0.312-0.275,0.174-0.42c-0.479-0.503-1.144-0.727-1.777-0.987c-0.768-0.316-1.536-0.629-2.304-0.943
								C241.291,412.946,241.118,413.372,241.36,413.502L241.36,413.502z"/>
						</g>
					</g>
					<g>
						<g>
							<path style="fill:#EF714B;" d="M240.02,411.296c0.062,0.192,0.043,0.379,0.107,0.565c0.04,0.115,0.169,0.218,0.298,0.169
								c0.471-0.177,0.43-0.836-0.015-1.034C240.216,410.909,239.942,411.054,240.02,411.296L240.02,411.296z"/>
						</g>
					</g>
					<g>
						<g>
							<path style="fill:#EF714B;" d="M239.904,408.247c0.069,0.251,0.093,0.403,0.287,0.574c0.128,0.113,0.327,0.07,0.379-0.1
								c0.075-0.25,0.018-0.393-0.056-0.642C240.398,407.69,239.795,407.853,239.904,408.247L239.904,408.247z"/>
						</g>
					</g>
					<g>
						<g>
							<path style="fill:#EF714B;" d="M240.312,415.027c-0.222,0.333-0.406,0.759-0.388,1.163c0.007,0.155,0.217,0.276,0.333,0.138
								c0.277-0.329,0.39-0.777,0.418-1.203C240.69,414.92,240.412,414.878,240.312,415.027L240.312,415.027z"/>
						</g>
					</g>
					<g>
						<g>
							<path style="fill:#EF714B;" d="M241.345,416.378c0.411,0.268,0.87,0.472,1.313,0.682c0.374,0.178,0.681,0.375,1.102,0.306
								c0.158-0.026,0.235-0.246,0.152-0.373c-0.231-0.351-0.598-0.44-0.976-0.59c-0.454-0.18-0.916-0.378-1.391-0.496
								C241.256,415.836,241.101,416.219,241.345,416.378L241.345,416.378z"/>
						</g>
					</g>
					<g>
						<g>
							<path style="fill:#EF714B;" d="M241.785,410.678c0.545,0.37,1.076,0.743,1.66,1.051c0.508,0.268,1.034,0.613,1.602,0.721
								c0.158,0.03,0.313-0.168,0.171-0.294c-0.459-0.408-1.098-0.638-1.656-0.887c-0.573-0.256-1.164-0.438-1.759-0.634
								C241.777,410.626,241.764,410.664,241.785,410.678L241.785,410.678z"/>
						</g>
					</g>
				</g>
				<path style="fill:#FFC373;" d="M210.793,342.438c6.443,0.479,8.158,13.503,6.443,19.729c-1.228,4.458-5.902,31.658-5.902,31.658
					l21.774,13.557c0,0-0.724,9.86-6.768,10.946c-6.044,1.086-34.848-12.661-34.944-19.411c-0.096-6.75,0.011-26.378,2.45-37.25
					C197.776,344.145,204.349,341.959,210.793,342.438z"/>
			</g>
			<g>
				<g>
					
						<path style="fill:#FF9B73;stroke:#EF714B;stroke-width:1.007;stroke-linecap:round;stroke-linejoin:round;stroke-miterlimit:10;" d="
						M259.403,297.283c-0.95-0.232-1.958-0.346-3.041-0.295c-9.111,0.425-14.24,9.43-16.322,17.865
						c0.087,3.143-0.912,6.477-1.234,9.464c-0.526,4.887-0.724,10.29,2.652,14.273c0.087,0.103,0.188,0.185,0.279,0.283
						c5.349-1.652,9.742-5.196,14.161-8.598c0.721-0.555,1.46-1.131,1.915-1.923c0.512-0.89,0.611-1.961,1.058-2.886
						c0.533-1.101,1.506-1.902,2.367-2.766c3.751-3.766,5.925-8.929,6.961-14.113C266.517,303.832,263.609,299.916,259.403,297.283z
						"/>
					<path style="fill:#EF714B;" d="M253.869,294.805c-4.457-1.321-8.972-1.426-13.482-0.361c-2.138,0.505-4.297,0.973-6.437,1.509
						c-0.918,2.102-1.864,4.226-2.863,6.431c-0.133,0.289,0.016,0.644,0.286,0.762c0.046,0.021,0.092,0.024,0.139,0.032
						l-0.811,4.548c0.469-0.427,0.935-0.856,1.416-1.268c0.46-0.393,1.442-1.562,2.032-1.664c0.634-0.109,0.752,0.959,0.658,1.441
						c-0.118,0.604-0.478,1.13-0.83,1.635c-0.697,1.003-1.395,2.005-2.093,3.008c-0.232,0.333-0.454,0.817-0.164,1.101
						c0.275,0.269,0.73,0.075,1.057-0.128c1.594-0.994,3.176-2.01,4.783-2.982c1.237-0.748,2.651-1.01,3.977-1.554
						c4.33-1.775,6.144-6.199,8.141-10.061c7.01,5.201,9.648,14.526,15.791,20.718c1.546-2.779,2.503-5.685,3.093-8.265
						C266.37,302.536,261.563,297.085,253.869,294.805z"/>
					<path style="fill:#39222F;" d="M267.385,317.566c-0.229-0.202-0.452-0.411-0.668-0.622c-2.08-2.043-3.755-4.447-5.306-6.904
						c-1.298-2.055-2.621-4.918-5.179-5.604c-1.378-0.37-2.918-0.077-4.064,0.771c-1.154,0.855-1.876,2.193-3.026,3.055
						c-1.271,0.953-2.677,1.073-4.127,1.5c-1.551,0.456-2.728,1.942-3.895,2.997c-1.111,1.005-2.24,2.023-3.583,2.688
						c-1.653,0.819-3.521,1.054-5.32,1.462c-1.765,0.4-2.505,1.175-3.648,2.649c0.595-3.659,0.59-7.494,1.097-11.211
						c0.555-4.065,1.177-8.144,2.447-12.044c0.641-1.968,1.427-4.029,3.08-5.274c1.654-1.245,4.432-1.198,5.447,0.606
						c-0.408-1.989,1.034-4.048,2.932-4.77c1.898-0.722,4.078-0.311,5.877,0.632c1.799,0.942,3.291,2.367,4.757,3.772
						c0.467-2.771,3.611-4.494,6.402-4.166c2.791,0.328,5.169,2.209,6.982,4.357c3.917,4.639,5.868,10.886,5.289,16.93
						c1.555-1.194,2.649-2.972,3.016-4.898c0.296,1.947,0.213,3.949-0.228,5.868c-0.274,1.193-1.432,2.967-1.201,4.121
						c0.793-0.198,5.115-1.306,5.417-2.002c-0.863,1.985-1.75,4.009-3.211,5.606c-1.461,1.596-3.627,2.714-5.762,2.36
						C269.578,319.223,268.411,318.467,267.385,317.566z"/>
				</g>
				<g>
					<g>
						<path style="fill:#39222F;" d="M250.525,322.476c1.762,0.913,3.211-1.891,1.446-2.805
							C250.209,318.758,248.76,321.561,250.525,322.476L250.525,322.476z"/>
					</g>
					<g>
						<path style="fill:#39222F;" d="M257.32,326.548c0.981,0.641,2.703-2.003,1.721-2.645
							C258.06,323.261,256.337,325.905,257.32,326.548L257.32,326.548z"/>
					</g>
					
						<path style="fill:#FF9B73;stroke:#EF714B;stroke-width:1.007;stroke-linecap:round;stroke-linejoin:round;stroke-miterlimit:10;" d="
						M257.959,322.826c-1.461,1.249-1.699,5.113-1.333,6.838c0.159,0.748,0.385,1.621-0.112,2.202
						c-0.331,0.388-0.879,0.497-1.386,0.546c-1.328,0.127-2.193-1.016-3.441-1.413"/>
					<g>
						<g>
							<path style="fill:#39222F;" d="M251.893,314.596c0.676,0.378,1.365,0.71,1.963,1.211c0.494,0.413,0.892,1.166,1.462,1.432
								c0.185,0.087,0.469-0.012,0.449-0.257c-0.063-0.745-0.881-1.376-1.432-1.808c-0.651-0.51-1.399-0.949-2.219-1.107
								C251.809,314.008,251.591,314.427,251.893,314.596L251.893,314.596z"/>
						</g>
					</g>
					<g>
						<g>
							<path style="fill:#39222F;" d="M259.772,321.801c0.616,0.089,1.22,0.35,1.666,0.793c0.27,0.267,0.868,0.806,1.1,0.169
								c0.198-0.543-0.518-1.042-0.915-1.275c-0.537-0.315-1.146-0.427-1.76-0.357C259.52,321.17,259.356,321.741,259.772,321.801
								L259.772,321.801z"/>
						</g>
					</g>
				</g>
				<g>
					<g>
						<path style="fill:#39222F;" d="M234.488,322.465c0.865-2.204,2.151-4.107,3.49-6.249c2.552-4.084,5.225-8.021,8.121-11.829
							c0.18-0.237,0.465-0.276,0.603-0.095c1.27,1.659-1.154,4.292-1.877,5.681c-1.109,2.131-1.849,4.462-2.206,6.836
							c-0.731,4.85,0.205,9.206,2.626,13.486c1.837-0.038,4.134-0.43,5.624,0.646c1.105,0.798,1.446,2.651,0.932,3.367
							c0.284-0.396,0.934-1.034,1.393-1.121c-0.969,1.977-2.619,3.937-4.111,5.547c-1.828,1.972-5.29,4.31-7.515,4.9
							c-2.651,0.703-4.488-0.367-5.94-2.217c-1.572-2.003-2.732-6.26-2.725-9.309c0.005-2.475,0.324-5.044,0.941-7.608
							C234.016,323.787,234.234,323.113,234.488,322.465z"/>
					</g>
					<path style="fill:#FF9B73;" d="M249.833,333.214c-1.311,0.19-2.199,0.347-3.479,0.002c0.169,0.809,0.812,1.454,1.547,1.831
						c0.618,0.317,1.3,0.473,1.985,0.601C249.327,334.617,249.833,333.214,249.833,333.214z"/>
				</g>
				<g>
					
						<path style="fill:#FF9B73;stroke:#EF714B;stroke-width:0.8719;stroke-linecap:round;stroke-linejoin:round;stroke-miterlimit:10;" d="
						M235.678,320.372c-1.014-0.883-1.606-2.177-1.897-3.469c-0.492-2.186-0.906-5.662,0.744-7.476
						c0.953-1.048,2.68-1.209,3.892-0.477c1.643,0.992,2.022,2.871,1.345,4.533"/>
					
						<path style="fill:none;stroke:#EF714B;stroke-width:0.8688;stroke-linecap:round;stroke-linejoin:round;stroke-miterlimit:10;" d="
						M235.671,312.087c0.089-0.355,0.18-0.717,0.374-1.028c0.194-0.311,0.51-0.568,0.875-0.596c0.409-0.031,0.798,0.235,1.01,0.586
						c0.731,1.211-0.12,2.661-0.589,3.794c-0.253,0.611-0.398,0.167-0.876,0.156c-0.453-0.01-0.894,0.303-1.033,0.734
						c-0.168,0.518,0.105,1.142,0.648,1.271"/>
				</g>
			</g>
		</g>
	</g>
</g>
</svg>
